<mxfile host="app.diagrams.net" agent="Mozilla/5.0 (Windows NT 10.0; Win64; x64) AppleWebKit/537.36 (KHTML, like Gecko) Chrome/130.0.0.0 Safari/537.36" version="24.8.6">
  <diagram name="Page-1" id="6y4-OnG3trQ6ALV-sdAY">
    <mxGraphModel dx="2343" dy="1724" grid="1" gridSize="10" guides="1" tooltips="1" connect="1" arrows="1" fold="1" page="1" pageScale="1" pageWidth="850" pageHeight="1100" math="0" shadow="0">
      <root>
        <mxCell id="0" />
        <mxCell id="1" parent="0" />
        <mxCell id="UGArVvC-zDIMmZMFEhy5-1" value="" style="edgeStyle=orthogonalEdgeStyle;rounded=0;orthogonalLoop=1;jettySize=auto;html=1;" parent="1" source="UGArVvC-zDIMmZMFEhy5-2" target="UGArVvC-zDIMmZMFEhy5-4" edge="1">
          <mxGeometry relative="1" as="geometry" />
        </mxCell>
        <mxCell id="UGArVvC-zDIMmZMFEhy5-2" value="start" style="ellipse;whiteSpace=wrap;html=1;" parent="1" vertex="1">
          <mxGeometry x="-10.5" y="-50" width="120" height="80" as="geometry" />
        </mxCell>
        <mxCell id="UGArVvC-zDIMmZMFEhy5-3" value="" style="edgeStyle=orthogonalEdgeStyle;rounded=0;orthogonalLoop=1;jettySize=auto;html=1;" parent="1" source="UGArVvC-zDIMmZMFEhy5-4" target="UGArVvC-zDIMmZMFEhy5-6" edge="1">
          <mxGeometry relative="1" as="geometry" />
        </mxCell>
        <mxCell id="UGArVvC-zDIMmZMFEhy5-4" value="admin = cepecial&lt;div&gt;password = 24&lt;/div&gt;" style="whiteSpace=wrap;html=1;" parent="1" vertex="1">
          <mxGeometry x="-10" y="190" width="120" height="60" as="geometry" />
        </mxCell>
        <mxCell id="UGArVvC-zDIMmZMFEhy5-5" value="" style="edgeStyle=orthogonalEdgeStyle;rounded=0;orthogonalLoop=1;jettySize=auto;html=1;" parent="1" source="UGArVvC-zDIMmZMFEhy5-6" target="UGArVvC-zDIMmZMFEhy5-13" edge="1">
          <mxGeometry relative="1" as="geometry" />
        </mxCell>
        <mxCell id="UGArVvC-zDIMmZMFEhy5-6" value="output&lt;div&gt;1.admin&lt;/div&gt;&lt;div&gt;2.pelanggan&lt;/div&gt;&lt;div&gt;3.exit&lt;/div&gt;" style="shape=parallelogram;perimeter=parallelogramPerimeter;whiteSpace=wrap;html=1;fixedSize=1;" parent="1" vertex="1">
          <mxGeometry x="-10" y="330" width="120" height="60" as="geometry" />
        </mxCell>
        <mxCell id="UGArVvC-zDIMmZMFEhy5-7" value="" style="edgeStyle=orthogonalEdgeStyle;rounded=0;orthogonalLoop=1;jettySize=auto;html=1;" parent="1" source="UGArVvC-zDIMmZMFEhy5-11" target="UGArVvC-zDIMmZMFEhy5-15" edge="1">
          <mxGeometry relative="1" as="geometry" />
        </mxCell>
        <mxCell id="UGArVvC-zDIMmZMFEhy5-8" value="Yes" style="edgeLabel;html=1;align=center;verticalAlign=middle;resizable=0;points=[];" parent="UGArVvC-zDIMmZMFEhy5-7" connectable="0" vertex="1">
          <mxGeometry x="-0.7266" y="1" relative="1" as="geometry">
            <mxPoint as="offset" />
          </mxGeometry>
        </mxCell>
        <mxCell id="UGArVvC-zDIMmZMFEhy5-11" value="pilih = 1" style="strokeWidth=2;html=1;shape=mxgraph.flowchart.decision;whiteSpace=wrap;" parent="1" vertex="1">
          <mxGeometry y="510" width="100" height="100" as="geometry" />
        </mxCell>
        <mxCell id="UGArVvC-zDIMmZMFEhy5-12" value="" style="edgeStyle=orthogonalEdgeStyle;rounded=0;orthogonalLoop=1;jettySize=auto;html=1;" parent="1" source="UGArVvC-zDIMmZMFEhy5-13" target="UGArVvC-zDIMmZMFEhy5-11" edge="1">
          <mxGeometry relative="1" as="geometry" />
        </mxCell>
        <mxCell id="UGArVvC-zDIMmZMFEhy5-13" value="input&lt;div&gt;pilih :&amp;nbsp;&lt;/div&gt;" style="shape=parallelogram;html=1;strokeWidth=2;perimeter=parallelogramPerimeter;whiteSpace=wrap;rounded=1;arcSize=12;size=0.23;" parent="1" vertex="1">
          <mxGeometry y="420" width="100" height="60" as="geometry" />
        </mxCell>
        <mxCell id="UGArVvC-zDIMmZMFEhy5-14" value="" style="edgeStyle=orthogonalEdgeStyle;rounded=0;orthogonalLoop=1;jettySize=auto;html=1;" parent="1" source="UGArVvC-zDIMmZMFEhy5-15" target="UGArVvC-zDIMmZMFEhy5-17" edge="1">
          <mxGeometry relative="1" as="geometry" />
        </mxCell>
        <mxCell id="UGArVvC-zDIMmZMFEhy5-15" value="input&lt;div&gt;masukkan username&lt;/div&gt;" style="shape=parallelogram;html=1;strokeWidth=2;perimeter=parallelogramPerimeter;whiteSpace=wrap;rounded=1;arcSize=12;size=0.23;" parent="1" vertex="1">
          <mxGeometry y="640" width="100" height="60" as="geometry" />
        </mxCell>
        <mxCell id="UGArVvC-zDIMmZMFEhy5-16" value="" style="edgeStyle=orthogonalEdgeStyle;rounded=0;orthogonalLoop=1;jettySize=auto;html=1;" parent="1" source="UGArVvC-zDIMmZMFEhy5-17" target="UGArVvC-zDIMmZMFEhy5-21" edge="1">
          <mxGeometry relative="1" as="geometry" />
        </mxCell>
        <mxCell id="UGArVvC-zDIMmZMFEhy5-17" value="input&lt;div&gt;masukkan&lt;/div&gt;&lt;div&gt;password&lt;/div&gt;" style="shape=parallelogram;html=1;strokeWidth=2;perimeter=parallelogramPerimeter;whiteSpace=wrap;rounded=1;arcSize=12;size=0.23;" parent="1" vertex="1">
          <mxGeometry y="750" width="100" height="60" as="geometry" />
        </mxCell>
        <mxCell id="UGArVvC-zDIMmZMFEhy5-18" style="edgeStyle=orthogonalEdgeStyle;rounded=0;orthogonalLoop=1;jettySize=auto;html=1;exitX=1;exitY=0.5;exitDx=0;exitDy=0;exitPerimeter=0;entryX=0.5;entryY=0;entryDx=0;entryDy=0;" parent="1" source="UGArVvC-zDIMmZMFEhy5-21" target="UGArVvC-zDIMmZMFEhy5-23" edge="1">
          <mxGeometry relative="1" as="geometry" />
        </mxCell>
        <mxCell id="UGArVvC-zDIMmZMFEhy5-19" value="Yes" style="edgeLabel;html=1;align=center;verticalAlign=middle;resizable=0;points=[];" parent="UGArVvC-zDIMmZMFEhy5-18" connectable="0" vertex="1">
          <mxGeometry x="0.4097" y="8" relative="1" as="geometry">
            <mxPoint y="-1" as="offset" />
          </mxGeometry>
        </mxCell>
        <mxCell id="UGArVvC-zDIMmZMFEhy5-20" value="No" style="edgeStyle=orthogonalEdgeStyle;rounded=0;orthogonalLoop=1;jettySize=auto;html=1;" parent="1" source="UGArVvC-zDIMmZMFEhy5-21" target="UGArVvC-zDIMmZMFEhy5-210" edge="1">
          <mxGeometry relative="1" as="geometry" />
        </mxCell>
        <mxCell id="UGArVvC-zDIMmZMFEhy5-21" value="if username ==&amp;nbsp;&lt;div&gt;admin&lt;div&gt;and&amp;nbsp;&lt;/div&gt;&lt;div&gt;password== pw&lt;/div&gt;&lt;/div&gt;" style="strokeWidth=2;html=1;shape=mxgraph.flowchart.decision;whiteSpace=wrap;" parent="1" vertex="1">
          <mxGeometry x="-23" y="860" width="145" height="140" as="geometry" />
        </mxCell>
        <mxCell id="HHN6mhlU5mqiVRZwl5sQ-33" style="edgeStyle=orthogonalEdgeStyle;rounded=0;orthogonalLoop=1;jettySize=auto;html=1;exitX=0.5;exitY=1;exitDx=0;exitDy=0;" parent="1" source="UGArVvC-zDIMmZMFEhy5-23" target="UGArVvC-zDIMmZMFEhy5-25" edge="1">
          <mxGeometry relative="1" as="geometry">
            <mxPoint x="20" y="1220" as="targetPoint" />
            <Array as="points">
              <mxPoint x="210" y="1220" />
            </Array>
          </mxGeometry>
        </mxCell>
        <mxCell id="UGArVvC-zDIMmZMFEhy5-23" value="1. lihat menu cemilan&lt;div&gt;2. lihat menu ps&lt;/div&gt;&lt;div&gt;3. tambah menu&lt;/div&gt;&lt;div&gt;4. hapus menu&lt;/div&gt;&lt;div&gt;5. lihat pesanan (cemilan)&lt;/div&gt;&lt;div&gt;6. lihat pesanan (ps)&lt;/div&gt;&lt;div&gt;7. exit&lt;/div&gt;" style="shape=parallelogram;html=1;strokeWidth=2;perimeter=parallelogramPerimeter;whiteSpace=wrap;rounded=1;arcSize=12;size=0.23;" parent="1" vertex="1">
          <mxGeometry x="70" y="1010" width="280" height="120" as="geometry" />
        </mxCell>
        <mxCell id="UGArVvC-zDIMmZMFEhy5-24" value="" style="edgeStyle=orthogonalEdgeStyle;rounded=0;orthogonalLoop=1;jettySize=auto;html=1;" parent="1" source="UGArVvC-zDIMmZMFEhy5-25" target="UGArVvC-zDIMmZMFEhy5-30" edge="1">
          <mxGeometry relative="1" as="geometry" />
        </mxCell>
        <mxCell id="UGArVvC-zDIMmZMFEhy5-25" value="input&lt;div&gt;pilih :&amp;nbsp;&lt;/div&gt;" style="shape=parallelogram;html=1;strokeWidth=2;perimeter=parallelogramPerimeter;whiteSpace=wrap;rounded=1;arcSize=12;size=0.23;" parent="1" vertex="1">
          <mxGeometry x="-130" y="1180" width="100" height="60" as="geometry" />
        </mxCell>
        <mxCell id="UGArVvC-zDIMmZMFEhy5-28" value="" style="edgeStyle=orthogonalEdgeStyle;rounded=0;orthogonalLoop=1;jettySize=auto;html=1;" parent="1" source="UGArVvC-zDIMmZMFEhy5-30" target="UGArVvC-zDIMmZMFEhy5-38" edge="1">
          <mxGeometry relative="1" as="geometry" />
        </mxCell>
        <mxCell id="UGArVvC-zDIMmZMFEhy5-29" value="no" style="edgeLabel;html=1;align=center;verticalAlign=middle;resizable=0;points=[];" parent="UGArVvC-zDIMmZMFEhy5-28" vertex="1" connectable="0">
          <mxGeometry x="-0.5429" relative="1" as="geometry">
            <mxPoint as="offset" />
          </mxGeometry>
        </mxCell>
        <mxCell id="_80qlgi9Hi1YphbFEvNP-6" value="" style="edgeStyle=orthogonalEdgeStyle;rounded=0;orthogonalLoop=1;jettySize=auto;html=1;" parent="1" source="UGArVvC-zDIMmZMFEhy5-30" target="_80qlgi9Hi1YphbFEvNP-5" edge="1">
          <mxGeometry relative="1" as="geometry" />
        </mxCell>
        <mxCell id="_80qlgi9Hi1YphbFEvNP-7" value="yes" style="edgeLabel;html=1;align=center;verticalAlign=middle;resizable=0;points=[];" parent="_80qlgi9Hi1YphbFEvNP-6" vertex="1" connectable="0">
          <mxGeometry x="-0.1012" y="5" relative="1" as="geometry">
            <mxPoint as="offset" />
          </mxGeometry>
        </mxCell>
        <mxCell id="UGArVvC-zDIMmZMFEhy5-30" value="pilih = 1" style="strokeWidth=2;html=1;shape=mxgraph.flowchart.decision;whiteSpace=wrap;" parent="1" vertex="1">
          <mxGeometry x="-131" y="1300" width="100" height="100" as="geometry" />
        </mxCell>
        <mxCell id="UGArVvC-zDIMmZMFEhy5-36" value="" style="edgeStyle=orthogonalEdgeStyle;rounded=0;orthogonalLoop=1;jettySize=auto;html=1;" parent="1" source="UGArVvC-zDIMmZMFEhy5-38" target="UGArVvC-zDIMmZMFEhy5-48" edge="1">
          <mxGeometry relative="1" as="geometry" />
        </mxCell>
        <mxCell id="UGArVvC-zDIMmZMFEhy5-37" value="No" style="edgeLabel;html=1;align=center;verticalAlign=middle;resizable=0;points=[];" parent="UGArVvC-zDIMmZMFEhy5-36" connectable="0" vertex="1">
          <mxGeometry x="-0.319" y="-1" relative="1" as="geometry">
            <mxPoint as="offset" />
          </mxGeometry>
        </mxCell>
        <mxCell id="_80qlgi9Hi1YphbFEvNP-20" value="" style="edgeStyle=orthogonalEdgeStyle;rounded=0;orthogonalLoop=1;jettySize=auto;html=1;" parent="1" source="UGArVvC-zDIMmZMFEhy5-38" target="_80qlgi9Hi1YphbFEvNP-19" edge="1">
          <mxGeometry relative="1" as="geometry" />
        </mxCell>
        <mxCell id="_80qlgi9Hi1YphbFEvNP-21" value="yes" style="edgeLabel;html=1;align=center;verticalAlign=middle;resizable=0;points=[];" parent="_80qlgi9Hi1YphbFEvNP-20" vertex="1" connectable="0">
          <mxGeometry x="-0.0282" y="4" relative="1" as="geometry">
            <mxPoint as="offset" />
          </mxGeometry>
        </mxCell>
        <mxCell id="UGArVvC-zDIMmZMFEhy5-38" value="pilih = 2" style="strokeWidth=2;html=1;shape=mxgraph.flowchart.decision;whiteSpace=wrap;" parent="1" vertex="1">
          <mxGeometry x="40" y="1300" width="100" height="100" as="geometry" />
        </mxCell>
        <mxCell id="UGArVvC-zDIMmZMFEhy5-46" value="" style="edgeStyle=orthogonalEdgeStyle;rounded=0;orthogonalLoop=1;jettySize=auto;html=1;" parent="1" source="UGArVvC-zDIMmZMFEhy5-48" target="UGArVvC-zDIMmZMFEhy5-106" edge="1">
          <mxGeometry relative="1" as="geometry" />
        </mxCell>
        <mxCell id="UGArVvC-zDIMmZMFEhy5-47" value="No" style="edgeLabel;html=1;align=center;verticalAlign=middle;resizable=0;points=[];" parent="UGArVvC-zDIMmZMFEhy5-46" connectable="0" vertex="1">
          <mxGeometry x="-0.2867" y="2" relative="1" as="geometry">
            <mxPoint as="offset" />
          </mxGeometry>
        </mxCell>
        <mxCell id="_80qlgi9Hi1YphbFEvNP-92" value="" style="edgeStyle=orthogonalEdgeStyle;rounded=0;orthogonalLoop=1;jettySize=auto;html=1;" parent="1" source="UGArVvC-zDIMmZMFEhy5-48" target="_80qlgi9Hi1YphbFEvNP-91" edge="1">
          <mxGeometry relative="1" as="geometry" />
        </mxCell>
        <mxCell id="_80qlgi9Hi1YphbFEvNP-94" value="Yes" style="edgeLabel;html=1;align=center;verticalAlign=middle;resizable=0;points=[];" parent="_80qlgi9Hi1YphbFEvNP-92" vertex="1" connectable="0">
          <mxGeometry x="-0.0753" y="-2" relative="1" as="geometry">
            <mxPoint as="offset" />
          </mxGeometry>
        </mxCell>
        <mxCell id="UGArVvC-zDIMmZMFEhy5-48" value="pilih = 3" style="strokeWidth=2;html=1;shape=mxgraph.flowchart.decision;whiteSpace=wrap;" parent="1" vertex="1">
          <mxGeometry x="200" y="1300" width="100" height="100" as="geometry" />
        </mxCell>
        <mxCell id="UGArVvC-zDIMmZMFEhy5-277" value="" style="edgeStyle=orthogonalEdgeStyle;rounded=0;orthogonalLoop=1;jettySize=auto;html=1;" parent="1" source="UGArVvC-zDIMmZMFEhy5-106" target="UGArVvC-zDIMmZMFEhy5-276" edge="1">
          <mxGeometry relative="1" as="geometry" />
        </mxCell>
        <mxCell id="-5CWVYfqe_hXi2GjYJDk-7" value="No" style="edgeLabel;html=1;align=center;verticalAlign=middle;resizable=0;points=[];" parent="UGArVvC-zDIMmZMFEhy5-277" vertex="1" connectable="0">
          <mxGeometry x="-0.3765" y="-1" relative="1" as="geometry">
            <mxPoint as="offset" />
          </mxGeometry>
        </mxCell>
        <mxCell id="_80qlgi9Hi1YphbFEvNP-178" value="" style="edgeStyle=orthogonalEdgeStyle;rounded=0;orthogonalLoop=1;jettySize=auto;html=1;" parent="1" source="UGArVvC-zDIMmZMFEhy5-106" target="_80qlgi9Hi1YphbFEvNP-177" edge="1">
          <mxGeometry relative="1" as="geometry" />
        </mxCell>
        <mxCell id="_80qlgi9Hi1YphbFEvNP-240" value="Yes" style="edgeLabel;html=1;align=center;verticalAlign=middle;resizable=0;points=[];" parent="_80qlgi9Hi1YphbFEvNP-178" vertex="1" connectable="0">
          <mxGeometry x="-0.1156" y="2" relative="1" as="geometry">
            <mxPoint as="offset" />
          </mxGeometry>
        </mxCell>
        <mxCell id="UGArVvC-zDIMmZMFEhy5-106" value="pilih = 4" style="strokeWidth=2;html=1;shape=mxgraph.flowchart.decision;whiteSpace=wrap;" parent="1" vertex="1">
          <mxGeometry x="380" y="1300" width="100" height="100" as="geometry" />
        </mxCell>
        <mxCell id="_80qlgi9Hi1YphbFEvNP-250" value="" style="edgeStyle=orthogonalEdgeStyle;rounded=0;orthogonalLoop=1;jettySize=auto;html=1;" parent="1" source="UGArVvC-zDIMmZMFEhy5-115" target="UGArVvC-zDIMmZMFEhy5-118" edge="1">
          <mxGeometry relative="1" as="geometry" />
        </mxCell>
        <mxCell id="_80qlgi9Hi1YphbFEvNP-251" value="Yes" style="edgeLabel;html=1;align=center;verticalAlign=middle;resizable=0;points=[];" parent="_80qlgi9Hi1YphbFEvNP-250" vertex="1" connectable="0">
          <mxGeometry x="-0.2257" relative="1" as="geometry">
            <mxPoint as="offset" />
          </mxGeometry>
        </mxCell>
        <mxCell id="UGArVvC-zDIMmZMFEhy5-115" value="Pilih = 2" style="strokeWidth=2;html=1;shape=mxgraph.flowchart.decision;whiteSpace=wrap;" parent="1" vertex="1">
          <mxGeometry x="1540" y="1850" width="100" height="100" as="geometry" />
        </mxCell>
        <mxCell id="eVix67ZUe32arK8DMbsL-36" value="" style="edgeStyle=orthogonalEdgeStyle;rounded=0;orthogonalLoop=1;jettySize=auto;html=1;" parent="1" source="UGArVvC-zDIMmZMFEhy5-118" target="UGArVvC-zDIMmZMFEhy5-120" edge="1">
          <mxGeometry relative="1" as="geometry" />
        </mxCell>
        <mxCell id="UGArVvC-zDIMmZMFEhy5-118" value="Output&amp;nbsp;&lt;div&gt;1. Cemilan&amp;nbsp;&lt;/div&gt;&lt;div&gt;2. Penyewaan ps&lt;/div&gt;&lt;div&gt;3. Exit&lt;/div&gt;" style="shape=parallelogram;perimeter=parallelogramPerimeter;whiteSpace=wrap;html=1;fixedSize=1;strokeWidth=2;" parent="1" vertex="1">
          <mxGeometry x="1530" y="2050" width="120" height="60" as="geometry" />
        </mxCell>
        <mxCell id="eVix67ZUe32arK8DMbsL-37" value="" style="edgeStyle=orthogonalEdgeStyle;rounded=0;orthogonalLoop=1;jettySize=auto;html=1;" parent="1" source="UGArVvC-zDIMmZMFEhy5-120" target="UGArVvC-zDIMmZMFEhy5-125" edge="1">
          <mxGeometry relative="1" as="geometry" />
        </mxCell>
        <mxCell id="UGArVvC-zDIMmZMFEhy5-120" value="Input&amp;nbsp;&lt;div&gt;Pilih :&lt;/div&gt;" style="shape=parallelogram;perimeter=parallelogramPerimeter;whiteSpace=wrap;html=1;fixedSize=1;strokeWidth=2;" parent="1" vertex="1">
          <mxGeometry x="1530" y="2200" width="120" height="60" as="geometry" />
        </mxCell>
        <mxCell id="eVix67ZUe32arK8DMbsL-58" style="edgeStyle=orthogonalEdgeStyle;rounded=0;orthogonalLoop=1;jettySize=auto;html=1;exitX=1;exitY=0.5;exitDx=0;exitDy=0;entryX=0;entryY=0.5;entryDx=0;entryDy=0;" parent="1" source="UGArVvC-zDIMmZMFEhy5-125" target="UGArVvC-zDIMmZMFEhy5-132" edge="1">
          <mxGeometry relative="1" as="geometry" />
        </mxCell>
        <mxCell id="IIXa-CxVkByhTY09dQFm-40" value="No" style="edgeLabel;html=1;align=center;verticalAlign=middle;resizable=0;points=[];" parent="eVix67ZUe32arK8DMbsL-58" vertex="1" connectable="0">
          <mxGeometry x="-0.0416" y="-7" relative="1" as="geometry">
            <mxPoint as="offset" />
          </mxGeometry>
        </mxCell>
        <mxCell id="IIXa-CxVkByhTY09dQFm-44" value="" style="edgeStyle=orthogonalEdgeStyle;rounded=0;orthogonalLoop=1;jettySize=auto;html=1;" parent="1" source="UGArVvC-zDIMmZMFEhy5-125" target="IIXa-CxVkByhTY09dQFm-43" edge="1">
          <mxGeometry relative="1" as="geometry" />
        </mxCell>
        <mxCell id="IIXa-CxVkByhTY09dQFm-45" value="Yes" style="edgeLabel;html=1;align=center;verticalAlign=middle;resizable=0;points=[];" parent="IIXa-CxVkByhTY09dQFm-44" vertex="1" connectable="0">
          <mxGeometry x="-0.0327" y="-3" relative="1" as="geometry">
            <mxPoint as="offset" />
          </mxGeometry>
        </mxCell>
        <mxCell id="UGArVvC-zDIMmZMFEhy5-125" value="Pilih = 1" style="rhombus;whiteSpace=wrap;html=1;strokeWidth=2;" parent="1" vertex="1">
          <mxGeometry x="1540" y="2330" width="100" height="100" as="geometry" />
        </mxCell>
        <mxCell id="eVix67ZUe32arK8DMbsL-88" style="edgeStyle=orthogonalEdgeStyle;rounded=0;orthogonalLoop=1;jettySize=auto;html=1;exitX=1;exitY=0.5;exitDx=0;exitDy=0;entryX=0;entryY=0.5;entryDx=0;entryDy=0;" parent="1" source="UGArVvC-zDIMmZMFEhy5-132" target="UGArVvC-zDIMmZMFEhy5-194" edge="1">
          <mxGeometry relative="1" as="geometry" />
        </mxCell>
        <mxCell id="IIXa-CxVkByhTY09dQFm-41" value="No" style="edgeLabel;html=1;align=center;verticalAlign=middle;resizable=0;points=[];" parent="eVix67ZUe32arK8DMbsL-88" vertex="1" connectable="0">
          <mxGeometry x="-0.2938" y="-2" relative="1" as="geometry">
            <mxPoint x="1" as="offset" />
          </mxGeometry>
        </mxCell>
        <mxCell id="eVix67ZUe32arK8DMbsL-87" style="edgeStyle=orthogonalEdgeStyle;rounded=0;orthogonalLoop=1;jettySize=auto;html=1;exitX=1;exitY=0.5;exitDx=0;exitDy=0;entryX=0.5;entryY=0;entryDx=0;entryDy=0;" parent="1" source="UGArVvC-zDIMmZMFEhy5-194" target="UGArVvC-zDIMmZMFEhy5-199" edge="1">
          <mxGeometry relative="1" as="geometry" />
        </mxCell>
        <mxCell id="IIXa-CxVkByhTY09dQFm-42" value="No" style="edgeLabel;html=1;align=center;verticalAlign=middle;resizable=0;points=[];" parent="eVix67ZUe32arK8DMbsL-87" vertex="1" connectable="0">
          <mxGeometry x="-0.295" y="2" relative="1" as="geometry">
            <mxPoint as="offset" />
          </mxGeometry>
        </mxCell>
        <mxCell id="eVix67ZUe32arK8DMbsL-89" style="edgeStyle=orthogonalEdgeStyle;rounded=0;orthogonalLoop=1;jettySize=auto;html=1;exitX=0.5;exitY=1;exitDx=0;exitDy=0;entryX=0.5;entryY=0;entryDx=0;entryDy=0;" parent="1" source="UGArVvC-zDIMmZMFEhy5-194" target="UGArVvC-zDIMmZMFEhy5-196" edge="1">
          <mxGeometry relative="1" as="geometry" />
        </mxCell>
        <mxCell id="IIXa-CxVkByhTY09dQFm-3" value="Yes" style="edgeLabel;html=1;align=center;verticalAlign=middle;resizable=0;points=[];" parent="eVix67ZUe32arK8DMbsL-89" vertex="1" connectable="0">
          <mxGeometry x="-0.2685" y="-1" relative="1" as="geometry">
            <mxPoint as="offset" />
          </mxGeometry>
        </mxCell>
        <mxCell id="UGArVvC-zDIMmZMFEhy5-194" value="Pilih = 3" style="rhombus;whiteSpace=wrap;html=1;strokeWidth=2;" parent="1" vertex="1">
          <mxGeometry x="2011" y="2330.5" width="100" height="99" as="geometry" />
        </mxCell>
        <mxCell id="IIXa-CxVkByhTY09dQFm-87" style="edgeStyle=orthogonalEdgeStyle;rounded=0;orthogonalLoop=1;jettySize=auto;html=1;exitX=0.5;exitY=1;exitDx=0;exitDy=0;" parent="1" edge="1">
          <mxGeometry relative="1" as="geometry">
            <mxPoint x="-330" y="920" as="targetPoint" />
            <mxPoint x="2061" y="2551" as="sourcePoint" />
            <Array as="points">
              <mxPoint x="2061" y="2731" />
              <mxPoint x="-330" y="2731" />
            </Array>
          </mxGeometry>
        </mxCell>
        <mxCell id="UGArVvC-zDIMmZMFEhy5-196" value="Output&amp;nbsp;&lt;div&gt;Anda kembali&lt;/div&gt;" style="shape=parallelogram;perimeter=parallelogramPerimeter;whiteSpace=wrap;html=1;fixedSize=1;strokeWidth=2;" parent="1" vertex="1">
          <mxGeometry x="2001" y="2500" width="120" height="60" as="geometry" />
        </mxCell>
        <mxCell id="IIXa-CxVkByhTY09dQFm-88" style="edgeStyle=orthogonalEdgeStyle;rounded=0;orthogonalLoop=1;jettySize=auto;html=1;exitX=0.5;exitY=1;exitDx=0;exitDy=0;" parent="1" edge="1">
          <mxGeometry relative="1" as="geometry">
            <mxPoint x="2062" y="2730" as="targetPoint" />
            <mxPoint x="2192" y="2480" as="sourcePoint" />
            <Array as="points">
              <mxPoint x="2192" y="2730" />
            </Array>
          </mxGeometry>
        </mxCell>
        <mxCell id="UGArVvC-zDIMmZMFEhy5-199" value="Output&amp;nbsp;&lt;div&gt;Tidak valid&amp;nbsp;&lt;/div&gt;" style="shape=parallelogram;perimeter=parallelogramPerimeter;whiteSpace=wrap;html=1;fixedSize=1;strokeWidth=2;size=20;" parent="1" vertex="1">
          <mxGeometry x="2140" y="2430" width="120" height="60" as="geometry" />
        </mxCell>
        <mxCell id="eVix67ZUe32arK8DMbsL-96" style="edgeStyle=orthogonalEdgeStyle;rounded=0;orthogonalLoop=1;jettySize=auto;html=1;exitX=0.5;exitY=1;exitDx=0;exitDy=0;exitPerimeter=0;" parent="1" source="UGArVvC-zDIMmZMFEhy5-203" target="UGArVvC-zDIMmZMFEhy5-205" edge="1">
          <mxGeometry relative="1" as="geometry" />
        </mxCell>
        <mxCell id="eVix67ZUe32arK8DMbsL-101" value="yes" style="edgeLabel;html=1;align=center;verticalAlign=middle;resizable=0;points=[];" parent="eVix67ZUe32arK8DMbsL-96" vertex="1" connectable="0">
          <mxGeometry x="-0.3889" y="3" relative="1" as="geometry">
            <mxPoint y="1" as="offset" />
          </mxGeometry>
        </mxCell>
        <mxCell id="eVix67ZUe32arK8DMbsL-99" style="edgeStyle=orthogonalEdgeStyle;rounded=0;orthogonalLoop=1;jettySize=auto;html=1;exitX=0;exitY=0.5;exitDx=0;exitDy=0;exitPerimeter=0;entryX=0.5;entryY=0;entryDx=0;entryDy=0;" parent="1" source="UGArVvC-zDIMmZMFEhy5-203" target="UGArVvC-zDIMmZMFEhy5-208" edge="1">
          <mxGeometry relative="1" as="geometry" />
        </mxCell>
        <mxCell id="eVix67ZUe32arK8DMbsL-102" value="no" style="edgeLabel;html=1;align=center;verticalAlign=middle;resizable=0;points=[];" parent="eVix67ZUe32arK8DMbsL-99" vertex="1" connectable="0">
          <mxGeometry x="-0.6979" y="5" relative="1" as="geometry">
            <mxPoint as="offset" />
          </mxGeometry>
        </mxCell>
        <mxCell id="UGArVvC-zDIMmZMFEhy5-203" value="Pilih = 3" style="strokeWidth=2;html=1;shape=mxgraph.flowchart.decision;whiteSpace=wrap;" parent="1" vertex="1">
          <mxGeometry x="2475" y="2590" width="100" height="100" as="geometry" />
        </mxCell>
        <mxCell id="IIXa-CxVkByhTY09dQFm-86" style="edgeStyle=orthogonalEdgeStyle;rounded=0;orthogonalLoop=1;jettySize=auto;html=1;exitX=0.5;exitY=0;exitDx=0;exitDy=0;entryX=0.5;entryY=0;entryDx=0;entryDy=0;" parent="1" source="UGArVvC-zDIMmZMFEhy5-205" target="TGC3S-t9RC-m07B8PZUG-1" edge="1">
          <mxGeometry relative="1" as="geometry" />
        </mxCell>
        <mxCell id="UGArVvC-zDIMmZMFEhy5-205" value="Output&amp;nbsp;&lt;div&gt;Anda kembali&amp;nbsp;&lt;/div&gt;" style="shape=parallelogram;perimeter=parallelogramPerimeter;whiteSpace=wrap;html=1;fixedSize=1;strokeWidth=2;movable=1;resizable=1;rotatable=1;deletable=1;editable=1;locked=0;connectable=1;size=30;direction=west;" parent="1" vertex="1">
          <mxGeometry x="2465" y="2820" width="120" height="60" as="geometry" />
        </mxCell>
        <mxCell id="IIXa-CxVkByhTY09dQFm-90" style="edgeStyle=orthogonalEdgeStyle;rounded=0;orthogonalLoop=1;jettySize=auto;html=1;exitX=0;exitY=0.5;exitDx=0;exitDy=0;" parent="1" edge="1">
          <mxGeometry relative="1" as="geometry">
            <mxPoint x="2190" y="2733" as="targetPoint" />
            <mxPoint x="2300" y="2703" as="sourcePoint" />
            <Array as="points">
              <mxPoint x="2280" y="2703" />
              <mxPoint x="2280" y="2730" />
              <mxPoint x="2191" y="2730" />
              <mxPoint x="2191" y="2733" />
            </Array>
          </mxGeometry>
        </mxCell>
        <mxCell id="UGArVvC-zDIMmZMFEhy5-208" value="Output&amp;nbsp;&lt;div&gt;Anda kembali&amp;nbsp;&lt;/div&gt;" style="shape=parallelogram;perimeter=parallelogramPerimeter;whiteSpace=wrap;html=1;fixedSize=1;strokeWidth=2;" parent="1" vertex="1">
          <mxGeometry x="2290" y="2680" width="120" height="60" as="geometry" />
        </mxCell>
        <mxCell id="UGArVvC-zDIMmZMFEhy5-209" value="" style="edgeStyle=orthogonalEdgeStyle;rounded=0;orthogonalLoop=1;jettySize=auto;html=1;entryX=0;entryY=0.5;entryDx=0;entryDy=0;exitX=0;exitY=0.5;exitDx=0;exitDy=0;" parent="1" source="UGArVvC-zDIMmZMFEhy5-210" target="UGArVvC-zDIMmZMFEhy5-6" edge="1">
          <mxGeometry relative="1" as="geometry">
            <mxPoint x="-30" y="370" as="targetPoint" />
            <Array as="points">
              <mxPoint x="-330" y="930" />
              <mxPoint x="-330" y="360" />
            </Array>
          </mxGeometry>
        </mxCell>
        <mxCell id="UGArVvC-zDIMmZMFEhy5-210" value="Output&amp;nbsp;&lt;div&gt;password and username salah&lt;/div&gt;" style="shape=parallelogram;perimeter=parallelogramPerimeter;whiteSpace=wrap;html=1;fixedSize=1;strokeWidth=2;" parent="1" vertex="1">
          <mxGeometry x="-241" y="900" width="120" height="60" as="geometry" />
        </mxCell>
        <mxCell id="UGArVvC-zDIMmZMFEhy5-293" value="" style="edgeStyle=orthogonalEdgeStyle;rounded=0;orthogonalLoop=1;jettySize=auto;html=1;" parent="1" source="UGArVvC-zDIMmZMFEhy5-276" target="UGArVvC-zDIMmZMFEhy5-292" edge="1">
          <mxGeometry relative="1" as="geometry" />
        </mxCell>
        <mxCell id="_80qlgi9Hi1YphbFEvNP-237" value="No" style="edgeLabel;html=1;align=center;verticalAlign=middle;resizable=0;points=[];" parent="UGArVvC-zDIMmZMFEhy5-293" vertex="1" connectable="0">
          <mxGeometry x="-0.2025" relative="1" as="geometry">
            <mxPoint x="1" as="offset" />
          </mxGeometry>
        </mxCell>
        <mxCell id="_80qlgi9Hi1YphbFEvNP-187" value="" style="edgeStyle=orthogonalEdgeStyle;rounded=0;orthogonalLoop=1;jettySize=auto;html=1;" parent="1" source="UGArVvC-zDIMmZMFEhy5-276" target="_80qlgi9Hi1YphbFEvNP-186" edge="1">
          <mxGeometry relative="1" as="geometry" />
        </mxCell>
        <mxCell id="_80qlgi9Hi1YphbFEvNP-241" value="Yes" style="edgeLabel;html=1;align=center;verticalAlign=middle;resizable=0;points=[];" parent="_80qlgi9Hi1YphbFEvNP-187" vertex="1" connectable="0">
          <mxGeometry x="-0.3078" y="2" relative="1" as="geometry">
            <mxPoint as="offset" />
          </mxGeometry>
        </mxCell>
        <mxCell id="UGArVvC-zDIMmZMFEhy5-276" value="pilih = 5" style="strokeWidth=2;html=1;shape=mxgraph.flowchart.decision;whiteSpace=wrap;" parent="1" vertex="1">
          <mxGeometry x="640" y="1300" width="100" height="100" as="geometry" />
        </mxCell>
        <mxCell id="UGArVvC-zDIMmZMFEhy5-321" value="" style="edgeStyle=orthogonalEdgeStyle;rounded=0;orthogonalLoop=1;jettySize=auto;html=1;" parent="1" source="UGArVvC-zDIMmZMFEhy5-292" target="UGArVvC-zDIMmZMFEhy5-320" edge="1">
          <mxGeometry relative="1" as="geometry" />
        </mxCell>
        <mxCell id="_80qlgi9Hi1YphbFEvNP-244" value="No" style="edgeLabel;html=1;align=center;verticalAlign=middle;resizable=0;points=[];" parent="UGArVvC-zDIMmZMFEhy5-321" vertex="1" connectable="0">
          <mxGeometry x="-0.1404" y="-3" relative="1" as="geometry">
            <mxPoint x="1" as="offset" />
          </mxGeometry>
        </mxCell>
        <mxCell id="_80qlgi9Hi1YphbFEvNP-239" value="" style="edgeStyle=orthogonalEdgeStyle;rounded=0;orthogonalLoop=1;jettySize=auto;html=1;" parent="1" source="UGArVvC-zDIMmZMFEhy5-292" target="_80qlgi9Hi1YphbFEvNP-238" edge="1">
          <mxGeometry relative="1" as="geometry" />
        </mxCell>
        <mxCell id="_80qlgi9Hi1YphbFEvNP-242" value="Yes" style="edgeLabel;html=1;align=center;verticalAlign=middle;resizable=0;points=[];" parent="_80qlgi9Hi1YphbFEvNP-239" vertex="1" connectable="0">
          <mxGeometry x="-0.2686" y="-1" relative="1" as="geometry">
            <mxPoint as="offset" />
          </mxGeometry>
        </mxCell>
        <mxCell id="UGArVvC-zDIMmZMFEhy5-292" value="pilih = 6" style="strokeWidth=2;html=1;shape=mxgraph.flowchart.decision;whiteSpace=wrap;" parent="1" vertex="1">
          <mxGeometry x="880" y="1300" width="100" height="100" as="geometry" />
        </mxCell>
        <mxCell id="eVix67ZUe32arK8DMbsL-30" style="edgeStyle=orthogonalEdgeStyle;rounded=0;orthogonalLoop=1;jettySize=auto;html=1;exitX=1;exitY=0.5;exitDx=0;exitDy=0;exitPerimeter=0;entryX=0.5;entryY=0;entryDx=0;entryDy=0;" parent="1" source="UGArVvC-zDIMmZMFEhy5-320" target="UGArVvC-zDIMmZMFEhy5-326" edge="1">
          <mxGeometry relative="1" as="geometry" />
        </mxCell>
        <mxCell id="-5CWVYfqe_hXi2GjYJDk-79" value="No" style="edgeLabel;html=1;align=center;verticalAlign=middle;resizable=0;points=[];" parent="eVix67ZUe32arK8DMbsL-30" vertex="1" connectable="0">
          <mxGeometry x="-0.6792" y="2" relative="1" as="geometry">
            <mxPoint as="offset" />
          </mxGeometry>
        </mxCell>
        <mxCell id="_80qlgi9Hi1YphbFEvNP-245" value="" style="edgeStyle=orthogonalEdgeStyle;rounded=0;orthogonalLoop=1;jettySize=auto;html=1;" parent="1" source="UGArVvC-zDIMmZMFEhy5-320" target="UGArVvC-zDIMmZMFEhy5-322" edge="1">
          <mxGeometry relative="1" as="geometry" />
        </mxCell>
        <mxCell id="_80qlgi9Hi1YphbFEvNP-246" value="Yes" style="edgeLabel;html=1;align=center;verticalAlign=middle;resizable=0;points=[];" parent="_80qlgi9Hi1YphbFEvNP-245" vertex="1" connectable="0">
          <mxGeometry x="-0.151" relative="1" as="geometry">
            <mxPoint as="offset" />
          </mxGeometry>
        </mxCell>
        <mxCell id="UGArVvC-zDIMmZMFEhy5-320" value="pilih = 7" style="strokeWidth=2;html=1;shape=mxgraph.flowchart.decision;whiteSpace=wrap;" parent="1" vertex="1">
          <mxGeometry x="1140" y="1300" width="100" height="100" as="geometry" />
        </mxCell>
        <mxCell id="IIXa-CxVkByhTY09dQFm-91" style="edgeStyle=orthogonalEdgeStyle;rounded=0;orthogonalLoop=1;jettySize=auto;html=1;exitX=0.5;exitY=1;exitDx=0;exitDy=0;" parent="1" edge="1">
          <mxGeometry relative="1" as="geometry">
            <mxPoint x="-328" y="1800" as="targetPoint" />
            <mxPoint x="1182.0000000000005" y="1520" as="sourcePoint" />
            <Array as="points">
              <mxPoint x="1182" y="1800" />
            </Array>
          </mxGeometry>
        </mxCell>
        <mxCell id="UGArVvC-zDIMmZMFEhy5-322" value="output&lt;div&gt;anda kembali&lt;/div&gt;" style="shape=parallelogram;perimeter=parallelogramPerimeter;whiteSpace=wrap;html=1;fixedSize=1;strokeWidth=2;" parent="1" vertex="1">
          <mxGeometry x="1130" y="1460" width="120" height="60" as="geometry" />
        </mxCell>
        <mxCell id="IIXa-CxVkByhTY09dQFm-95" style="edgeStyle=orthogonalEdgeStyle;rounded=0;orthogonalLoop=1;jettySize=auto;html=1;exitX=0.5;exitY=1;exitDx=0;exitDy=0;" parent="1" edge="1">
          <mxGeometry relative="1" as="geometry">
            <mxPoint x="1183" y="1800" as="targetPoint" />
            <mxPoint x="1373.0000000000005" y="1460" as="sourcePoint" />
            <Array as="points">
              <mxPoint x="1373" y="1800" />
            </Array>
          </mxGeometry>
        </mxCell>
        <mxCell id="UGArVvC-zDIMmZMFEhy5-326" value="output&lt;div&gt;tidak valid&lt;/div&gt;" style="shape=parallelogram;perimeter=parallelogramPerimeter;whiteSpace=wrap;html=1;fixedSize=1;strokeWidth=2;" parent="1" vertex="1">
          <mxGeometry x="1320" y="1400" width="120" height="60" as="geometry" />
        </mxCell>
        <mxCell id="TGC3S-t9RC-m07B8PZUG-1" value="end" style="ellipse;whiteSpace=wrap;html=1;" parent="1" vertex="1">
          <mxGeometry x="2466" y="2990" width="120" height="80" as="geometry" />
        </mxCell>
        <mxCell id="_80qlgi9Hi1YphbFEvNP-3" value="" style="edgeStyle=orthogonalEdgeStyle;rounded=0;orthogonalLoop=1;jettySize=auto;html=1;" parent="1" source="-5CWVYfqe_hXi2GjYJDk-3" target="-5CWVYfqe_hXi2GjYJDk-4" edge="1">
          <mxGeometry relative="1" as="geometry" />
        </mxCell>
        <mxCell id="-5CWVYfqe_hXi2GjYJDk-3" value="&lt;br&gt;&lt;div&gt;lihat_menu&lt;div&gt;_makanan()&lt;/div&gt;&lt;/div&gt;" style="shape=process;whiteSpace=wrap;html=1;backgroundOutline=1;" parent="1" vertex="1">
          <mxGeometry x="-70" y="3210" width="120" height="60" as="geometry" />
        </mxCell>
        <mxCell id="SSxU0Ux77sJdYV8XLshP-7" style="edgeStyle=orthogonalEdgeStyle;rounded=0;orthogonalLoop=1;jettySize=auto;html=1;exitX=0.5;exitY=1;exitDx=0;exitDy=0;entryX=0;entryY=0.5;entryDx=0;entryDy=0;" edge="1" parent="1" source="-5CWVYfqe_hXi2GjYJDk-4" target="SSxU0Ux77sJdYV8XLshP-1">
          <mxGeometry relative="1" as="geometry">
            <Array as="points">
              <mxPoint x="-10" y="3410" />
              <mxPoint x="-170" y="3410" />
              <mxPoint x="-170" y="3040" />
            </Array>
          </mxGeometry>
        </mxCell>
        <mxCell id="-5CWVYfqe_hXi2GjYJDk-4" value="&lt;br&gt;&lt;div&gt;lihat_menu_&lt;div&gt;minuman()&lt;/div&gt;&lt;/div&gt;" style="shape=process;whiteSpace=wrap;html=1;backgroundOutline=1;" parent="1" vertex="1">
          <mxGeometry x="-70" y="3330" width="120" height="60" as="geometry" />
        </mxCell>
        <mxCell id="-5CWVYfqe_hXi2GjYJDk-6" style="edgeStyle=orthogonalEdgeStyle;rounded=0;orthogonalLoop=1;jettySize=auto;html=1;exitX=0.5;exitY=1;exitDx=0;exitDy=0;" parent="1" edge="1">
          <mxGeometry relative="1" as="geometry">
            <mxPoint x="-80" y="1670" as="targetPoint" />
            <Array as="points">
              <mxPoint x="90" y="1670" />
            </Array>
            <mxPoint x="90" y="1530" as="sourcePoint" />
          </mxGeometry>
        </mxCell>
        <mxCell id="SSxU0Ux77sJdYV8XLshP-2" value="" style="edgeStyle=orthogonalEdgeStyle;rounded=0;orthogonalLoop=1;jettySize=auto;html=1;" edge="1" parent="1" source="_80qlgi9Hi1YphbFEvNP-1" target="SSxU0Ux77sJdYV8XLshP-1">
          <mxGeometry relative="1" as="geometry" />
        </mxCell>
        <mxCell id="_80qlgi9Hi1YphbFEvNP-1" value="&lt;h3&gt;1&lt;/h3&gt;" style="ellipse;whiteSpace=wrap;html=1;aspect=fixed;fillColor=#7EA6E0;" parent="1" vertex="1">
          <mxGeometry x="-50" y="2850" width="80" height="80" as="geometry" />
        </mxCell>
        <mxCell id="_80qlgi9Hi1YphbFEvNP-5" value="&lt;h3&gt;1&lt;/h3&gt;" style="ellipse;whiteSpace=wrap;html=1;aspect=fixed;fillColor=#7EA6E0;" parent="1" vertex="1">
          <mxGeometry x="-121" y="1475" width="80" height="80" as="geometry" />
        </mxCell>
        <mxCell id="_80qlgi9Hi1YphbFEvNP-8" style="edgeStyle=orthogonalEdgeStyle;rounded=0;orthogonalLoop=1;jettySize=auto;html=1;exitX=0.5;exitY=1;exitDx=0;exitDy=0;entryX=0.142;entryY=0.394;entryDx=0;entryDy=0;entryPerimeter=0;" parent="1" source="_80qlgi9Hi1YphbFEvNP-5" target="UGArVvC-zDIMmZMFEhy5-23" edge="1">
          <mxGeometry relative="1" as="geometry">
            <Array as="points">
              <mxPoint x="-81" y="1670" />
              <mxPoint x="-210" y="1670" />
              <mxPoint x="-210" y="1057" />
            </Array>
          </mxGeometry>
        </mxCell>
        <mxCell id="SSxU0Ux77sJdYV8XLshP-5" value="" style="edgeStyle=orthogonalEdgeStyle;rounded=0;orthogonalLoop=1;jettySize=auto;html=1;" edge="1" parent="1" source="_80qlgi9Hi1YphbFEvNP-9" target="SSxU0Ux77sJdYV8XLshP-4">
          <mxGeometry relative="1" as="geometry" />
        </mxCell>
        <mxCell id="_80qlgi9Hi1YphbFEvNP-9" value="&lt;h3&gt;2&lt;/h3&gt;" style="ellipse;whiteSpace=wrap;html=1;aspect=fixed;fillColor=#7EA6E0;" parent="1" vertex="1">
          <mxGeometry x="221" y="2850" width="80" height="80" as="geometry" />
        </mxCell>
        <mxCell id="_80qlgi9Hi1YphbFEvNP-116" value="" style="edgeStyle=orthogonalEdgeStyle;rounded=0;orthogonalLoop=1;jettySize=auto;html=1;" parent="1" source="_80qlgi9Hi1YphbFEvNP-10" target="_80qlgi9Hi1YphbFEvNP-95" edge="1">
          <mxGeometry relative="1" as="geometry" />
        </mxCell>
        <mxCell id="_80qlgi9Hi1YphbFEvNP-10" value="&lt;h3&gt;4&lt;/h3&gt;" style="ellipse;whiteSpace=wrap;html=1;aspect=fixed;fillColor=#7EA6E0;" parent="1" vertex="1">
          <mxGeometry x="1870" y="3250" width="80" height="80" as="geometry" />
        </mxCell>
        <mxCell id="_80qlgi9Hi1YphbFEvNP-45" value="" style="edgeStyle=orthogonalEdgeStyle;rounded=0;orthogonalLoop=1;jettySize=auto;html=1;" parent="1" source="_80qlgi9Hi1YphbFEvNP-11" target="_80qlgi9Hi1YphbFEvNP-22" edge="1">
          <mxGeometry relative="1" as="geometry" />
        </mxCell>
        <mxCell id="_80qlgi9Hi1YphbFEvNP-11" value="&lt;h3&gt;3&lt;/h3&gt;" style="ellipse;whiteSpace=wrap;html=1;aspect=fixed;fillColor=#7EA6E0;" parent="1" vertex="1">
          <mxGeometry x="810" y="2850" width="80" height="80" as="geometry" />
        </mxCell>
        <mxCell id="_80qlgi9Hi1YphbFEvNP-171" value="" style="edgeStyle=orthogonalEdgeStyle;rounded=0;orthogonalLoop=1;jettySize=auto;html=1;" parent="1" source="_80qlgi9Hi1YphbFEvNP-12" target="_80qlgi9Hi1YphbFEvNP-162" edge="1">
          <mxGeometry relative="1" as="geometry" />
        </mxCell>
        <mxCell id="_80qlgi9Hi1YphbFEvNP-12" value="&lt;h3&gt;5&lt;/h3&gt;" style="ellipse;whiteSpace=wrap;html=1;aspect=fixed;fillColor=#7EA6E0;" parent="1" vertex="1">
          <mxGeometry x="3110" y="3210" width="80" height="80" as="geometry" />
        </mxCell>
        <mxCell id="_80qlgi9Hi1YphbFEvNP-16" value="" style="edgeStyle=orthogonalEdgeStyle;rounded=0;orthogonalLoop=1;jettySize=auto;html=1;" parent="1" source="_80qlgi9Hi1YphbFEvNP-13" target="_80qlgi9Hi1YphbFEvNP-15" edge="1">
          <mxGeometry relative="1" as="geometry" />
        </mxCell>
        <mxCell id="_80qlgi9Hi1YphbFEvNP-13" value="&lt;br&gt;&lt;div&gt;lihat_menu&lt;div&gt;_ps_no_&lt;/div&gt;&lt;div&gt;smoking()&lt;/div&gt;&lt;/div&gt;" style="shape=process;whiteSpace=wrap;html=1;backgroundOutline=1;" parent="1" vertex="1">
          <mxGeometry x="202" y="3210" width="120" height="60" as="geometry" />
        </mxCell>
        <mxCell id="SSxU0Ux77sJdYV8XLshP-8" style="edgeStyle=orthogonalEdgeStyle;rounded=0;orthogonalLoop=1;jettySize=auto;html=1;exitX=0.5;exitY=1;exitDx=0;exitDy=0;entryX=1;entryY=0.5;entryDx=0;entryDy=0;" edge="1" parent="1" source="_80qlgi9Hi1YphbFEvNP-14" target="SSxU0Ux77sJdYV8XLshP-4">
          <mxGeometry relative="1" as="geometry">
            <Array as="points">
              <mxPoint x="260" y="3550" />
              <mxPoint x="440" y="3550" />
              <mxPoint x="440" y="3040" />
            </Array>
          </mxGeometry>
        </mxCell>
        <mxCell id="_80qlgi9Hi1YphbFEvNP-14" value="&lt;br&gt;&lt;div&gt;lihat_menu&lt;div&gt;_ps_vip&lt;span style=&quot;background-color: initial;&quot;&gt;()&lt;/span&gt;&lt;/div&gt;&lt;/div&gt;" style="shape=process;whiteSpace=wrap;html=1;backgroundOutline=1;" parent="1" vertex="1">
          <mxGeometry x="200" y="3470" width="120" height="60" as="geometry" />
        </mxCell>
        <mxCell id="_80qlgi9Hi1YphbFEvNP-17" value="" style="edgeStyle=orthogonalEdgeStyle;rounded=0;orthogonalLoop=1;jettySize=auto;html=1;" parent="1" source="_80qlgi9Hi1YphbFEvNP-15" target="_80qlgi9Hi1YphbFEvNP-14" edge="1">
          <mxGeometry relative="1" as="geometry" />
        </mxCell>
        <mxCell id="_80qlgi9Hi1YphbFEvNP-15" value="&lt;br&gt;&lt;div&gt;lihat_menu&lt;div&gt;_ps_&lt;/div&gt;&lt;div&gt;smoking()&lt;/div&gt;&lt;/div&gt;" style="shape=process;whiteSpace=wrap;html=1;backgroundOutline=1;" parent="1" vertex="1">
          <mxGeometry x="201" y="3330" width="120" height="60" as="geometry" />
        </mxCell>
        <mxCell id="_80qlgi9Hi1YphbFEvNP-19" value="&lt;h3&gt;2&lt;/h3&gt;" style="ellipse;whiteSpace=wrap;html=1;aspect=fixed;fillColor=#7EA6E0;" parent="1" vertex="1">
          <mxGeometry x="50" y="1474" width="80" height="80" as="geometry" />
        </mxCell>
        <mxCell id="_80qlgi9Hi1YphbFEvNP-46" value="" style="edgeStyle=orthogonalEdgeStyle;rounded=0;orthogonalLoop=1;jettySize=auto;html=1;" parent="1" source="_80qlgi9Hi1YphbFEvNP-22" target="_80qlgi9Hi1YphbFEvNP-23" edge="1">
          <mxGeometry relative="1" as="geometry" />
        </mxCell>
        <mxCell id="_80qlgi9Hi1YphbFEvNP-22" value="1. makanan&lt;div&gt;2. minuman&lt;/div&gt;&lt;div&gt;3. ps&lt;/div&gt;&lt;div&gt;4. exit&lt;/div&gt;" style="shape=parallelogram;html=1;strokeWidth=2;perimeter=parallelogramPerimeter;whiteSpace=wrap;rounded=1;arcSize=12;size=0.23;" parent="1" vertex="1">
          <mxGeometry x="800" y="3060" width="100" height="60" as="geometry" />
        </mxCell>
        <mxCell id="_80qlgi9Hi1YphbFEvNP-47" value="" style="edgeStyle=orthogonalEdgeStyle;rounded=0;orthogonalLoop=1;jettySize=auto;html=1;" parent="1" source="_80qlgi9Hi1YphbFEvNP-23" target="_80qlgi9Hi1YphbFEvNP-24" edge="1">
          <mxGeometry relative="1" as="geometry" />
        </mxCell>
        <mxCell id="_80qlgi9Hi1YphbFEvNP-23" value="input&lt;div&gt;pilih :&lt;/div&gt;" style="shape=parallelogram;html=1;strokeWidth=2;perimeter=parallelogramPerimeter;whiteSpace=wrap;rounded=1;arcSize=12;size=0.23;" parent="1" vertex="1">
          <mxGeometry x="800" y="3250" width="100" height="60" as="geometry" />
        </mxCell>
        <mxCell id="_80qlgi9Hi1YphbFEvNP-48" value="" style="edgeStyle=orthogonalEdgeStyle;rounded=0;orthogonalLoop=1;jettySize=auto;html=1;" parent="1" source="_80qlgi9Hi1YphbFEvNP-24" target="_80qlgi9Hi1YphbFEvNP-28" edge="1">
          <mxGeometry relative="1" as="geometry" />
        </mxCell>
        <mxCell id="_80qlgi9Hi1YphbFEvNP-50" value="yes" style="edgeLabel;html=1;align=center;verticalAlign=middle;resizable=0;points=[];" parent="_80qlgi9Hi1YphbFEvNP-48" vertex="1" connectable="0">
          <mxGeometry x="-0.6084" y="-2" relative="1" as="geometry">
            <mxPoint as="offset" />
          </mxGeometry>
        </mxCell>
        <mxCell id="_80qlgi9Hi1YphbFEvNP-49" value="" style="edgeStyle=orthogonalEdgeStyle;rounded=0;orthogonalLoop=1;jettySize=auto;html=1;" parent="1" source="_80qlgi9Hi1YphbFEvNP-24" target="_80qlgi9Hi1YphbFEvNP-25" edge="1">
          <mxGeometry relative="1" as="geometry" />
        </mxCell>
        <mxCell id="_80qlgi9Hi1YphbFEvNP-52" value="no" style="edgeLabel;html=1;align=center;verticalAlign=middle;resizable=0;points=[];" parent="_80qlgi9Hi1YphbFEvNP-49" vertex="1" connectable="0">
          <mxGeometry x="-0.2747" y="-3" relative="1" as="geometry">
            <mxPoint as="offset" />
          </mxGeometry>
        </mxCell>
        <mxCell id="_80qlgi9Hi1YphbFEvNP-24" value="pilih = 1" style="strokeWidth=2;html=1;shape=mxgraph.flowchart.decision;whiteSpace=wrap;" parent="1" vertex="1">
          <mxGeometry x="800" y="3450" width="100" height="100" as="geometry" />
        </mxCell>
        <mxCell id="_80qlgi9Hi1YphbFEvNP-53" value="" style="edgeStyle=orthogonalEdgeStyle;rounded=0;orthogonalLoop=1;jettySize=auto;html=1;" parent="1" source="_80qlgi9Hi1YphbFEvNP-25" target="_80qlgi9Hi1YphbFEvNP-29" edge="1">
          <mxGeometry relative="1" as="geometry" />
        </mxCell>
        <mxCell id="_80qlgi9Hi1YphbFEvNP-54" value="Yes" style="edgeLabel;html=1;align=center;verticalAlign=middle;resizable=0;points=[];" parent="_80qlgi9Hi1YphbFEvNP-53" vertex="1" connectable="0">
          <mxGeometry x="-0.2723" y="1" relative="1" as="geometry">
            <mxPoint as="offset" />
          </mxGeometry>
        </mxCell>
        <mxCell id="_80qlgi9Hi1YphbFEvNP-55" value="" style="edgeStyle=orthogonalEdgeStyle;rounded=0;orthogonalLoop=1;jettySize=auto;html=1;" parent="1" source="_80qlgi9Hi1YphbFEvNP-25" target="_80qlgi9Hi1YphbFEvNP-26" edge="1">
          <mxGeometry relative="1" as="geometry" />
        </mxCell>
        <mxCell id="_80qlgi9Hi1YphbFEvNP-56" value="No" style="edgeLabel;html=1;align=center;verticalAlign=middle;resizable=0;points=[];" parent="_80qlgi9Hi1YphbFEvNP-55" vertex="1" connectable="0">
          <mxGeometry x="-0.3378" y="5" relative="1" as="geometry">
            <mxPoint as="offset" />
          </mxGeometry>
        </mxCell>
        <mxCell id="_80qlgi9Hi1YphbFEvNP-25" value="pilih = 2" style="strokeWidth=2;html=1;shape=mxgraph.flowchart.decision;whiteSpace=wrap;" parent="1" vertex="1">
          <mxGeometry x="1000" y="3450" width="100" height="100" as="geometry" />
        </mxCell>
        <mxCell id="_80qlgi9Hi1YphbFEvNP-57" value="" style="edgeStyle=orthogonalEdgeStyle;rounded=0;orthogonalLoop=1;jettySize=auto;html=1;" parent="1" source="_80qlgi9Hi1YphbFEvNP-26" target="_80qlgi9Hi1YphbFEvNP-30" edge="1">
          <mxGeometry relative="1" as="geometry" />
        </mxCell>
        <mxCell id="_80qlgi9Hi1YphbFEvNP-85" value="Yes" style="edgeLabel;html=1;align=center;verticalAlign=middle;resizable=0;points=[];" parent="_80qlgi9Hi1YphbFEvNP-57" vertex="1" connectable="0">
          <mxGeometry x="-0.3395" y="2" relative="1" as="geometry">
            <mxPoint as="offset" />
          </mxGeometry>
        </mxCell>
        <mxCell id="_80qlgi9Hi1YphbFEvNP-84" value="" style="edgeStyle=orthogonalEdgeStyle;rounded=0;orthogonalLoop=1;jettySize=auto;html=1;" parent="1" source="_80qlgi9Hi1YphbFEvNP-26" target="_80qlgi9Hi1YphbFEvNP-27" edge="1">
          <mxGeometry relative="1" as="geometry" />
        </mxCell>
        <mxCell id="_80qlgi9Hi1YphbFEvNP-86" value="No" style="edgeLabel;html=1;align=center;verticalAlign=middle;resizable=0;points=[];" parent="_80qlgi9Hi1YphbFEvNP-84" vertex="1" connectable="0">
          <mxGeometry x="-0.5563" y="-1" relative="1" as="geometry">
            <mxPoint as="offset" />
          </mxGeometry>
        </mxCell>
        <mxCell id="_80qlgi9Hi1YphbFEvNP-26" value="pilih = 3" style="strokeWidth=2;html=1;shape=mxgraph.flowchart.decision;whiteSpace=wrap;" parent="1" vertex="1">
          <mxGeometry x="1190" y="3448" width="100" height="100" as="geometry" />
        </mxCell>
        <mxCell id="_80qlgi9Hi1YphbFEvNP-87" value="" style="edgeStyle=orthogonalEdgeStyle;rounded=0;orthogonalLoop=1;jettySize=auto;html=1;" parent="1" source="_80qlgi9Hi1YphbFEvNP-27" target="_80qlgi9Hi1YphbFEvNP-42" edge="1">
          <mxGeometry relative="1" as="geometry" />
        </mxCell>
        <mxCell id="_80qlgi9Hi1YphbFEvNP-89" value="Yes" style="edgeLabel;html=1;align=center;verticalAlign=middle;resizable=0;points=[];" parent="_80qlgi9Hi1YphbFEvNP-87" vertex="1" connectable="0">
          <mxGeometry x="0.0659" y="3" relative="1" as="geometry">
            <mxPoint as="offset" />
          </mxGeometry>
        </mxCell>
        <mxCell id="_80qlgi9Hi1YphbFEvNP-88" value="" style="edgeStyle=orthogonalEdgeStyle;rounded=0;orthogonalLoop=1;jettySize=auto;html=1;" parent="1" source="_80qlgi9Hi1YphbFEvNP-27" target="_80qlgi9Hi1YphbFEvNP-44" edge="1">
          <mxGeometry relative="1" as="geometry" />
        </mxCell>
        <mxCell id="_80qlgi9Hi1YphbFEvNP-90" value="No" style="edgeLabel;html=1;align=center;verticalAlign=middle;resizable=0;points=[];" parent="_80qlgi9Hi1YphbFEvNP-88" vertex="1" connectable="0">
          <mxGeometry x="-0.2504" y="1" relative="1" as="geometry">
            <mxPoint as="offset" />
          </mxGeometry>
        </mxCell>
        <mxCell id="_80qlgi9Hi1YphbFEvNP-27" value="pilih = 4" style="strokeWidth=2;html=1;shape=mxgraph.flowchart.decision;whiteSpace=wrap;" parent="1" vertex="1">
          <mxGeometry x="1370" y="3450" width="100" height="100" as="geometry" />
        </mxCell>
        <mxCell id="SSxU0Ux77sJdYV8XLshP-15" style="edgeStyle=orthogonalEdgeStyle;rounded=0;orthogonalLoop=1;jettySize=auto;html=1;exitX=0.5;exitY=1;exitDx=0;exitDy=0;entryX=0;entryY=0.5;entryDx=0;entryDy=0;" edge="1" parent="1" source="_80qlgi9Hi1YphbFEvNP-28" target="_80qlgi9Hi1YphbFEvNP-22">
          <mxGeometry relative="1" as="geometry">
            <Array as="points">
              <mxPoint x="850" y="3760" />
              <mxPoint x="750" y="3760" />
              <mxPoint x="750" y="3090" />
            </Array>
          </mxGeometry>
        </mxCell>
        <mxCell id="_80qlgi9Hi1YphbFEvNP-28" value="&lt;br&gt;&lt;div&gt;tambah_data&lt;/div&gt;&lt;div&gt;_&lt;span style=&quot;background-color: initial;&quot;&gt;makanan()&lt;/span&gt;&lt;/div&gt;" style="shape=process;whiteSpace=wrap;html=1;backgroundOutline=1;" parent="1" vertex="1">
          <mxGeometry x="790" y="3630" width="120" height="60" as="geometry" />
        </mxCell>
        <mxCell id="SSxU0Ux77sJdYV8XLshP-17" style="edgeStyle=orthogonalEdgeStyle;rounded=0;orthogonalLoop=1;jettySize=auto;html=1;exitX=0.5;exitY=1;exitDx=0;exitDy=0;" edge="1" parent="1" source="_80qlgi9Hi1YphbFEvNP-29">
          <mxGeometry relative="1" as="geometry">
            <mxPoint x="840" y="3760" as="targetPoint" />
            <Array as="points">
              <mxPoint x="1051" y="3760" />
            </Array>
          </mxGeometry>
        </mxCell>
        <mxCell id="_80qlgi9Hi1YphbFEvNP-29" value="&lt;br&gt;&lt;div&gt;tambah_data&lt;/div&gt;&lt;div&gt;_minuman()&lt;/div&gt;" style="shape=process;whiteSpace=wrap;html=1;backgroundOutline=1;" parent="1" vertex="1">
          <mxGeometry x="991" y="3630" width="120" height="60" as="geometry" />
        </mxCell>
        <mxCell id="_80qlgi9Hi1YphbFEvNP-58" value="" style="edgeStyle=orthogonalEdgeStyle;rounded=0;orthogonalLoop=1;jettySize=auto;html=1;" parent="1" source="_80qlgi9Hi1YphbFEvNP-30" target="_80qlgi9Hi1YphbFEvNP-31" edge="1">
          <mxGeometry relative="1" as="geometry" />
        </mxCell>
        <mxCell id="_80qlgi9Hi1YphbFEvNP-30" value="output&lt;div&gt;1. ruangan no&amp;nbsp;&lt;div&gt;smoking&lt;/div&gt;&lt;div&gt;2. ruangan smoking&lt;/div&gt;&lt;div&gt;3. ruangan vip&lt;/div&gt;&lt;div&gt;4. exit&lt;br&gt;&lt;div&gt;&lt;br&gt;&lt;/div&gt;&lt;/div&gt;&lt;/div&gt;" style="shape=parallelogram;html=1;strokeWidth=2;perimeter=parallelogramPerimeter;whiteSpace=wrap;rounded=1;arcSize=12;size=0.23;" parent="1" vertex="1">
          <mxGeometry x="1155" y="3650" width="170" height="110" as="geometry" />
        </mxCell>
        <mxCell id="_80qlgi9Hi1YphbFEvNP-59" value="" style="edgeStyle=orthogonalEdgeStyle;rounded=0;orthogonalLoop=1;jettySize=auto;html=1;" parent="1" source="_80qlgi9Hi1YphbFEvNP-31" target="_80qlgi9Hi1YphbFEvNP-32" edge="1">
          <mxGeometry relative="1" as="geometry" />
        </mxCell>
        <mxCell id="_80qlgi9Hi1YphbFEvNP-31" value="input&lt;div&gt;pilih :&amp;nbsp;&lt;/div&gt;" style="shape=parallelogram;html=1;strokeWidth=2;perimeter=parallelogramPerimeter;whiteSpace=wrap;rounded=1;arcSize=12;size=0.23;" parent="1" vertex="1">
          <mxGeometry x="1190" y="3860" width="100" height="60" as="geometry" />
        </mxCell>
        <mxCell id="_80qlgi9Hi1YphbFEvNP-60" value="" style="edgeStyle=orthogonalEdgeStyle;rounded=0;orthogonalLoop=1;jettySize=auto;html=1;" parent="1" source="_80qlgi9Hi1YphbFEvNP-32" target="_80qlgi9Hi1YphbFEvNP-33" edge="1">
          <mxGeometry relative="1" as="geometry" />
        </mxCell>
        <mxCell id="_80qlgi9Hi1YphbFEvNP-63" value="yes" style="edgeLabel;html=1;align=center;verticalAlign=middle;resizable=0;points=[];" parent="_80qlgi9Hi1YphbFEvNP-60" vertex="1" connectable="0">
          <mxGeometry x="-0.1224" y="2" relative="1" as="geometry">
            <mxPoint as="offset" />
          </mxGeometry>
        </mxCell>
        <mxCell id="_80qlgi9Hi1YphbFEvNP-64" value="" style="edgeStyle=orthogonalEdgeStyle;rounded=0;orthogonalLoop=1;jettySize=auto;html=1;" parent="1" source="_80qlgi9Hi1YphbFEvNP-32" target="_80qlgi9Hi1YphbFEvNP-34" edge="1">
          <mxGeometry relative="1" as="geometry" />
        </mxCell>
        <mxCell id="_80qlgi9Hi1YphbFEvNP-65" value="No" style="edgeLabel;html=1;align=center;verticalAlign=middle;resizable=0;points=[];" parent="_80qlgi9Hi1YphbFEvNP-64" vertex="1" connectable="0">
          <mxGeometry x="-0.1149" relative="1" as="geometry">
            <mxPoint x="1" as="offset" />
          </mxGeometry>
        </mxCell>
        <mxCell id="_80qlgi9Hi1YphbFEvNP-32" value="pilih = 1" style="strokeWidth=2;html=1;shape=mxgraph.flowchart.decision;whiteSpace=wrap;" parent="1" vertex="1">
          <mxGeometry x="1370" y="3840" width="100" height="100" as="geometry" />
        </mxCell>
        <mxCell id="SSxU0Ux77sJdYV8XLshP-18" style="edgeStyle=orthogonalEdgeStyle;rounded=0;orthogonalLoop=1;jettySize=auto;html=1;exitX=0.5;exitY=1;exitDx=0;exitDy=0;entryX=0;entryY=0.5;entryDx=0;entryDy=0;" edge="1" parent="1" source="_80qlgi9Hi1YphbFEvNP-33" target="_80qlgi9Hi1YphbFEvNP-30">
          <mxGeometry relative="1" as="geometry">
            <Array as="points">
              <mxPoint x="1420" y="4120" />
              <mxPoint x="1130" y="4120" />
              <mxPoint x="1130" y="3705" />
            </Array>
          </mxGeometry>
        </mxCell>
        <mxCell id="_80qlgi9Hi1YphbFEvNP-33" value="&lt;br&gt;&lt;div&gt;t&lt;span style=&quot;background-color: initial;&quot;&gt;ambah_data_&lt;/span&gt;&lt;div&gt;ps_no_smoking&lt;/div&gt;&lt;/div&gt;" style="shape=process;whiteSpace=wrap;html=1;backgroundOutline=1;" parent="1" vertex="1">
          <mxGeometry x="1360" y="4010" width="120" height="60" as="geometry" />
        </mxCell>
        <mxCell id="_80qlgi9Hi1YphbFEvNP-66" value="" style="edgeStyle=orthogonalEdgeStyle;rounded=0;orthogonalLoop=1;jettySize=auto;html=1;" parent="1" source="_80qlgi9Hi1YphbFEvNP-34" target="_80qlgi9Hi1YphbFEvNP-35" edge="1">
          <mxGeometry relative="1" as="geometry" />
        </mxCell>
        <mxCell id="_80qlgi9Hi1YphbFEvNP-69" value="Yes" style="edgeLabel;html=1;align=center;verticalAlign=middle;resizable=0;points=[];" parent="_80qlgi9Hi1YphbFEvNP-66" vertex="1" connectable="0">
          <mxGeometry x="-0.4047" y="2" relative="1" as="geometry">
            <mxPoint as="offset" />
          </mxGeometry>
        </mxCell>
        <mxCell id="_80qlgi9Hi1YphbFEvNP-67" value="" style="edgeStyle=orthogonalEdgeStyle;rounded=0;orthogonalLoop=1;jettySize=auto;html=1;" parent="1" source="_80qlgi9Hi1YphbFEvNP-34" target="_80qlgi9Hi1YphbFEvNP-36" edge="1">
          <mxGeometry relative="1" as="geometry" />
        </mxCell>
        <mxCell id="_80qlgi9Hi1YphbFEvNP-70" value="No" style="edgeLabel;html=1;align=center;verticalAlign=middle;resizable=0;points=[];" parent="_80qlgi9Hi1YphbFEvNP-67" vertex="1" connectable="0">
          <mxGeometry x="-0.1435" y="-3" relative="1" as="geometry">
            <mxPoint as="offset" />
          </mxGeometry>
        </mxCell>
        <mxCell id="_80qlgi9Hi1YphbFEvNP-34" value="pilih = 2" style="strokeWidth=2;html=1;shape=mxgraph.flowchart.decision;whiteSpace=wrap;" parent="1" vertex="1">
          <mxGeometry x="1530" y="3842" width="100" height="100" as="geometry" />
        </mxCell>
        <mxCell id="SSxU0Ux77sJdYV8XLshP-20" style="edgeStyle=orthogonalEdgeStyle;rounded=0;orthogonalLoop=1;jettySize=auto;html=1;exitX=0.5;exitY=1;exitDx=0;exitDy=0;" edge="1" parent="1" source="_80qlgi9Hi1YphbFEvNP-35">
          <mxGeometry relative="1" as="geometry">
            <mxPoint x="1410" y="4120" as="targetPoint" />
            <Array as="points">
              <mxPoint x="1580" y="4120" />
            </Array>
          </mxGeometry>
        </mxCell>
        <mxCell id="_80qlgi9Hi1YphbFEvNP-35" value="&lt;br&gt;&lt;div&gt;tambah_data_&lt;div&gt;ps_smoking&lt;/div&gt;&lt;/div&gt;" style="shape=process;whiteSpace=wrap;html=1;backgroundOutline=1;" parent="1" vertex="1">
          <mxGeometry x="1520" y="4012" width="120" height="60" as="geometry" />
        </mxCell>
        <mxCell id="_80qlgi9Hi1YphbFEvNP-68" value="" style="edgeStyle=orthogonalEdgeStyle;rounded=0;orthogonalLoop=1;jettySize=auto;html=1;" parent="1" source="_80qlgi9Hi1YphbFEvNP-36" target="_80qlgi9Hi1YphbFEvNP-37" edge="1">
          <mxGeometry relative="1" as="geometry" />
        </mxCell>
        <mxCell id="_80qlgi9Hi1YphbFEvNP-71" value="Yes" style="edgeLabel;html=1;align=center;verticalAlign=middle;resizable=0;points=[];" parent="_80qlgi9Hi1YphbFEvNP-68" vertex="1" connectable="0">
          <mxGeometry x="-0.2327" y="5" relative="1" as="geometry">
            <mxPoint as="offset" />
          </mxGeometry>
        </mxCell>
        <mxCell id="_80qlgi9Hi1YphbFEvNP-72" value="" style="edgeStyle=orthogonalEdgeStyle;rounded=0;orthogonalLoop=1;jettySize=auto;html=1;" parent="1" source="_80qlgi9Hi1YphbFEvNP-36" target="_80qlgi9Hi1YphbFEvNP-38" edge="1">
          <mxGeometry relative="1" as="geometry" />
        </mxCell>
        <mxCell id="_80qlgi9Hi1YphbFEvNP-73" value="No" style="edgeLabel;html=1;align=center;verticalAlign=middle;resizable=0;points=[];" parent="_80qlgi9Hi1YphbFEvNP-72" vertex="1" connectable="0">
          <mxGeometry x="-0.2529" y="1" relative="1" as="geometry">
            <mxPoint as="offset" />
          </mxGeometry>
        </mxCell>
        <mxCell id="_80qlgi9Hi1YphbFEvNP-36" value="pilih = 3" style="strokeWidth=2;html=1;shape=mxgraph.flowchart.decision;whiteSpace=wrap;" parent="1" vertex="1">
          <mxGeometry x="1703" y="3840" width="100" height="100" as="geometry" />
        </mxCell>
        <mxCell id="SSxU0Ux77sJdYV8XLshP-21" style="edgeStyle=orthogonalEdgeStyle;rounded=0;orthogonalLoop=1;jettySize=auto;html=1;exitX=0.5;exitY=1;exitDx=0;exitDy=0;" edge="1" parent="1" source="_80qlgi9Hi1YphbFEvNP-37">
          <mxGeometry relative="1" as="geometry">
            <mxPoint x="1580" y="4120" as="targetPoint" />
            <Array as="points">
              <mxPoint x="1753" y="4120" />
            </Array>
          </mxGeometry>
        </mxCell>
        <mxCell id="_80qlgi9Hi1YphbFEvNP-37" value="&lt;div&gt;tambah_data_&lt;div&gt;vip&lt;/div&gt;&lt;/div&gt;" style="shape=process;whiteSpace=wrap;html=1;backgroundOutline=1;" parent="1" vertex="1">
          <mxGeometry x="1693" y="4010" width="120" height="60" as="geometry" />
        </mxCell>
        <mxCell id="_80qlgi9Hi1YphbFEvNP-74" value="" style="edgeStyle=orthogonalEdgeStyle;rounded=0;orthogonalLoop=1;jettySize=auto;html=1;" parent="1" source="_80qlgi9Hi1YphbFEvNP-38" target="_80qlgi9Hi1YphbFEvNP-39" edge="1">
          <mxGeometry relative="1" as="geometry" />
        </mxCell>
        <mxCell id="_80qlgi9Hi1YphbFEvNP-76" value="Yes" style="edgeLabel;html=1;align=center;verticalAlign=middle;resizable=0;points=[];" parent="_80qlgi9Hi1YphbFEvNP-74" vertex="1" connectable="0">
          <mxGeometry x="-0.3576" y="1" relative="1" as="geometry">
            <mxPoint as="offset" />
          </mxGeometry>
        </mxCell>
        <mxCell id="_80qlgi9Hi1YphbFEvNP-75" style="edgeStyle=orthogonalEdgeStyle;rounded=0;orthogonalLoop=1;jettySize=auto;html=1;exitX=1;exitY=0.5;exitDx=0;exitDy=0;exitPerimeter=0;entryX=0.5;entryY=0;entryDx=0;entryDy=0;" parent="1" source="_80qlgi9Hi1YphbFEvNP-38" target="_80qlgi9Hi1YphbFEvNP-41" edge="1">
          <mxGeometry relative="1" as="geometry" />
        </mxCell>
        <mxCell id="_80qlgi9Hi1YphbFEvNP-77" value="No" style="edgeLabel;html=1;align=center;verticalAlign=middle;resizable=0;points=[];" parent="_80qlgi9Hi1YphbFEvNP-75" vertex="1" connectable="0">
          <mxGeometry x="-0.3276" y="-2" relative="1" as="geometry">
            <mxPoint as="offset" />
          </mxGeometry>
        </mxCell>
        <mxCell id="_80qlgi9Hi1YphbFEvNP-38" value="pilih = 4" style="strokeWidth=2;html=1;shape=mxgraph.flowchart.decision;whiteSpace=wrap;" parent="1" vertex="1">
          <mxGeometry x="1901" y="3842" width="100" height="100" as="geometry" />
        </mxCell>
        <mxCell id="SSxU0Ux77sJdYV8XLshP-22" style="edgeStyle=orthogonalEdgeStyle;rounded=0;orthogonalLoop=1;jettySize=auto;html=1;exitX=0.5;exitY=1;exitDx=0;exitDy=0;" edge="1" parent="1" source="_80qlgi9Hi1YphbFEvNP-39">
          <mxGeometry relative="1" as="geometry">
            <mxPoint x="750" y="3750" as="targetPoint" />
            <Array as="points">
              <mxPoint x="1951" y="4160" />
              <mxPoint x="751" y="4160" />
            </Array>
          </mxGeometry>
        </mxCell>
        <mxCell id="_80qlgi9Hi1YphbFEvNP-39" value="output&lt;div&gt;kembali&amp;nbsp;&lt;div&gt;beranda&lt;/div&gt;&lt;/div&gt;" style="shape=parallelogram;html=1;strokeWidth=2;perimeter=parallelogramPerimeter;whiteSpace=wrap;rounded=1;arcSize=12;size=0.23;" parent="1" vertex="1">
          <mxGeometry x="1901" y="4000" width="100" height="60" as="geometry" />
        </mxCell>
        <mxCell id="SSxU0Ux77sJdYV8XLshP-23" style="edgeStyle=orthogonalEdgeStyle;rounded=0;orthogonalLoop=1;jettySize=auto;html=1;exitX=0.5;exitY=1;exitDx=0;exitDy=0;" edge="1" parent="1" source="_80qlgi9Hi1YphbFEvNP-41">
          <mxGeometry relative="1" as="geometry">
            <mxPoint x="1940" y="4160" as="targetPoint" />
            <Array as="points">
              <mxPoint x="2075" y="4160" />
            </Array>
          </mxGeometry>
        </mxCell>
        <mxCell id="_80qlgi9Hi1YphbFEvNP-41" value="Output&amp;nbsp;&lt;div&gt;Tidak valid&lt;/div&gt;" style="shape=parallelogram;html=1;strokeWidth=2;perimeter=parallelogramPerimeter;whiteSpace=wrap;rounded=1;arcSize=12;size=0.22499999999999998;" parent="1" vertex="1">
          <mxGeometry x="2025" y="3910" width="100" height="60" as="geometry" />
        </mxCell>
        <mxCell id="_80qlgi9Hi1YphbFEvNP-44" value="Output&amp;nbsp;&lt;div&gt;Tidak valid&lt;/div&gt;" style="shape=parallelogram;html=1;strokeWidth=2;perimeter=parallelogramPerimeter;whiteSpace=wrap;rounded=1;arcSize=12;size=0.22499999999999998;" parent="1" vertex="1">
          <mxGeometry x="1500" y="3560" width="100" height="60" as="geometry" />
        </mxCell>
        <mxCell id="_80qlgi9Hi1YphbFEvNP-93" style="edgeStyle=orthogonalEdgeStyle;rounded=0;orthogonalLoop=1;jettySize=auto;html=1;exitX=0.5;exitY=1;exitDx=0;exitDy=0;" parent="1" source="_80qlgi9Hi1YphbFEvNP-91" edge="1">
          <mxGeometry relative="1" as="geometry">
            <mxPoint x="90" y="1670" as="targetPoint" />
            <Array as="points">
              <mxPoint x="250" y="1670" />
            </Array>
          </mxGeometry>
        </mxCell>
        <mxCell id="_80qlgi9Hi1YphbFEvNP-91" value="&lt;h3&gt;3&lt;/h3&gt;" style="ellipse;whiteSpace=wrap;html=1;aspect=fixed;fillColor=#7EA6E0;" parent="1" vertex="1">
          <mxGeometry x="210" y="1474" width="80" height="80" as="geometry" />
        </mxCell>
        <mxCell id="_80qlgi9Hi1YphbFEvNP-117" value="" style="edgeStyle=orthogonalEdgeStyle;rounded=0;orthogonalLoop=1;jettySize=auto;html=1;" parent="1" source="_80qlgi9Hi1YphbFEvNP-95" target="_80qlgi9Hi1YphbFEvNP-96" edge="1">
          <mxGeometry relative="1" as="geometry" />
        </mxCell>
        <mxCell id="_80qlgi9Hi1YphbFEvNP-95" value="1. makanan&lt;div&gt;2. minuman&lt;/div&gt;&lt;div&gt;3. ps&lt;/div&gt;&lt;div&gt;4. exit&lt;/div&gt;" style="shape=parallelogram;html=1;strokeWidth=2;perimeter=parallelogramPerimeter;whiteSpace=wrap;rounded=1;arcSize=12;size=0.23;" parent="1" vertex="1">
          <mxGeometry x="1860" y="3400" width="100" height="60" as="geometry" />
        </mxCell>
        <mxCell id="_80qlgi9Hi1YphbFEvNP-118" value="" style="edgeStyle=orthogonalEdgeStyle;rounded=0;orthogonalLoop=1;jettySize=auto;html=1;" parent="1" source="_80qlgi9Hi1YphbFEvNP-96" target="_80qlgi9Hi1YphbFEvNP-97" edge="1">
          <mxGeometry relative="1" as="geometry" />
        </mxCell>
        <mxCell id="_80qlgi9Hi1YphbFEvNP-96" value="input&lt;div&gt;pilih :&lt;/div&gt;" style="shape=parallelogram;html=1;strokeWidth=2;perimeter=parallelogramPerimeter;whiteSpace=wrap;rounded=1;arcSize=12;size=0.23;" parent="1" vertex="1">
          <mxGeometry x="1860" y="3540" width="100" height="60" as="geometry" />
        </mxCell>
        <mxCell id="_80qlgi9Hi1YphbFEvNP-119" value="" style="edgeStyle=orthogonalEdgeStyle;rounded=0;orthogonalLoop=1;jettySize=auto;html=1;" parent="1" source="_80qlgi9Hi1YphbFEvNP-97" target="_80qlgi9Hi1YphbFEvNP-99" edge="1">
          <mxGeometry relative="1" as="geometry" />
        </mxCell>
        <mxCell id="_80qlgi9Hi1YphbFEvNP-122" value="Yes" style="edgeLabel;html=1;align=center;verticalAlign=middle;resizable=0;points=[];" parent="_80qlgi9Hi1YphbFEvNP-119" vertex="1" connectable="0">
          <mxGeometry x="-0.1706" y="1" relative="1" as="geometry">
            <mxPoint as="offset" />
          </mxGeometry>
        </mxCell>
        <mxCell id="_80qlgi9Hi1YphbFEvNP-120" value="" style="edgeStyle=orthogonalEdgeStyle;rounded=0;orthogonalLoop=1;jettySize=auto;html=1;" parent="1" source="_80qlgi9Hi1YphbFEvNP-97" target="_80qlgi9Hi1YphbFEvNP-100" edge="1">
          <mxGeometry relative="1" as="geometry" />
        </mxCell>
        <mxCell id="_80qlgi9Hi1YphbFEvNP-123" value="No" style="edgeLabel;html=1;align=center;verticalAlign=middle;resizable=0;points=[];" parent="_80qlgi9Hi1YphbFEvNP-120" vertex="1" connectable="0">
          <mxGeometry x="-0.5149" y="-3" relative="1" as="geometry">
            <mxPoint as="offset" />
          </mxGeometry>
        </mxCell>
        <mxCell id="_80qlgi9Hi1YphbFEvNP-97" value="Pilih == 1" style="strokeWidth=2;html=1;shape=mxgraph.flowchart.decision;whiteSpace=wrap;" parent="1" vertex="1">
          <mxGeometry x="2025" y="3520" width="100" height="100" as="geometry" />
        </mxCell>
        <mxCell id="SSxU0Ux77sJdYV8XLshP-31" style="edgeStyle=orthogonalEdgeStyle;rounded=0;orthogonalLoop=1;jettySize=auto;html=1;exitX=0.5;exitY=1;exitDx=0;exitDy=0;entryX=0;entryY=0.5;entryDx=0;entryDy=0;" edge="1" parent="1" source="_80qlgi9Hi1YphbFEvNP-99" target="_80qlgi9Hi1YphbFEvNP-95">
          <mxGeometry relative="1" as="geometry">
            <Array as="points">
              <mxPoint x="2075" y="3780" />
              <mxPoint x="1830" y="3780" />
              <mxPoint x="1830" y="3430" />
            </Array>
          </mxGeometry>
        </mxCell>
        <mxCell id="_80qlgi9Hi1YphbFEvNP-99" value="Hapus_data_&lt;div&gt;makanan&lt;/div&gt;" style="shape=process;whiteSpace=wrap;html=1;backgroundOutline=1;" parent="1" vertex="1">
          <mxGeometry x="2015" y="3680" width="120" height="60" as="geometry" />
        </mxCell>
        <mxCell id="_80qlgi9Hi1YphbFEvNP-121" value="" style="edgeStyle=orthogonalEdgeStyle;rounded=0;orthogonalLoop=1;jettySize=auto;html=1;" parent="1" source="_80qlgi9Hi1YphbFEvNP-100" target="_80qlgi9Hi1YphbFEvNP-101" edge="1">
          <mxGeometry relative="1" as="geometry" />
        </mxCell>
        <mxCell id="_80qlgi9Hi1YphbFEvNP-124" value="Yes" style="edgeLabel;html=1;align=center;verticalAlign=middle;resizable=0;points=[];" parent="_80qlgi9Hi1YphbFEvNP-121" vertex="1" connectable="0">
          <mxGeometry x="-0.0529" y="3" relative="1" as="geometry">
            <mxPoint as="offset" />
          </mxGeometry>
        </mxCell>
        <mxCell id="_80qlgi9Hi1YphbFEvNP-125" value="" style="edgeStyle=orthogonalEdgeStyle;rounded=0;orthogonalLoop=1;jettySize=auto;html=1;" parent="1" source="_80qlgi9Hi1YphbFEvNP-100" target="_80qlgi9Hi1YphbFEvNP-102" edge="1">
          <mxGeometry relative="1" as="geometry" />
        </mxCell>
        <mxCell id="_80qlgi9Hi1YphbFEvNP-126" value="No" style="edgeLabel;html=1;align=center;verticalAlign=middle;resizable=0;points=[];" parent="_80qlgi9Hi1YphbFEvNP-125" vertex="1" connectable="0">
          <mxGeometry x="-0.3451" y="-3" relative="1" as="geometry">
            <mxPoint as="offset" />
          </mxGeometry>
        </mxCell>
        <mxCell id="_80qlgi9Hi1YphbFEvNP-100" value="Pilih == 2" style="strokeWidth=2;html=1;shape=mxgraph.flowchart.decision;whiteSpace=wrap;" parent="1" vertex="1">
          <mxGeometry x="2190" y="3520" width="100" height="100" as="geometry" />
        </mxCell>
        <mxCell id="SSxU0Ux77sJdYV8XLshP-32" style="edgeStyle=orthogonalEdgeStyle;rounded=0;orthogonalLoop=1;jettySize=auto;html=1;exitX=0.5;exitY=1;exitDx=0;exitDy=0;" edge="1" parent="1">
          <mxGeometry relative="1" as="geometry">
            <mxPoint x="2073" y="3780" as="targetPoint" />
            <mxPoint x="2233" y="3750" as="sourcePoint" />
            <Array as="points">
              <mxPoint x="2233" y="3780" />
            </Array>
          </mxGeometry>
        </mxCell>
        <mxCell id="_80qlgi9Hi1YphbFEvNP-101" value="Hapus_data_&lt;div&gt;minuman&lt;/div&gt;" style="shape=process;whiteSpace=wrap;html=1;backgroundOutline=1;" parent="1" vertex="1">
          <mxGeometry x="2180" y="3690" width="120" height="60" as="geometry" />
        </mxCell>
        <mxCell id="_80qlgi9Hi1YphbFEvNP-127" value="" style="edgeStyle=orthogonalEdgeStyle;rounded=0;orthogonalLoop=1;jettySize=auto;html=1;" parent="1" source="_80qlgi9Hi1YphbFEvNP-102" target="_80qlgi9Hi1YphbFEvNP-103" edge="1">
          <mxGeometry relative="1" as="geometry" />
        </mxCell>
        <mxCell id="_80qlgi9Hi1YphbFEvNP-128" value="Yes" style="edgeLabel;html=1;align=center;verticalAlign=middle;resizable=0;points=[];" parent="_80qlgi9Hi1YphbFEvNP-127" vertex="1" connectable="0">
          <mxGeometry x="-0.2897" y="3" relative="1" as="geometry">
            <mxPoint as="offset" />
          </mxGeometry>
        </mxCell>
        <mxCell id="SSxU0Ux77sJdYV8XLshP-26" value="" style="edgeStyle=orthogonalEdgeStyle;rounded=0;orthogonalLoop=1;jettySize=auto;html=1;" edge="1" parent="1" source="_80qlgi9Hi1YphbFEvNP-102" target="_80qlgi9Hi1YphbFEvNP-113">
          <mxGeometry relative="1" as="geometry" />
        </mxCell>
        <mxCell id="SSxU0Ux77sJdYV8XLshP-27" value="No" style="edgeLabel;html=1;align=center;verticalAlign=middle;resizable=0;points=[];" vertex="1" connectable="0" parent="SSxU0Ux77sJdYV8XLshP-26">
          <mxGeometry x="-0.2778" y="-2" relative="1" as="geometry">
            <mxPoint as="offset" />
          </mxGeometry>
        </mxCell>
        <mxCell id="_80qlgi9Hi1YphbFEvNP-102" value="Pilih == 3" style="strokeWidth=2;html=1;shape=mxgraph.flowchart.decision;whiteSpace=wrap;" parent="1" vertex="1">
          <mxGeometry x="2356" y="3520" width="100" height="100" as="geometry" />
        </mxCell>
        <mxCell id="_80qlgi9Hi1YphbFEvNP-131" value="" style="edgeStyle=orthogonalEdgeStyle;rounded=0;orthogonalLoop=1;jettySize=auto;html=1;" parent="1" source="_80qlgi9Hi1YphbFEvNP-103" target="_80qlgi9Hi1YphbFEvNP-130" edge="1">
          <mxGeometry relative="1" as="geometry" />
        </mxCell>
        <mxCell id="_80qlgi9Hi1YphbFEvNP-103" value="output&lt;div&gt;1. ruangan no smoking&lt;/div&gt;&lt;div&gt;2, ruangan smoking&lt;/div&gt;&lt;div&gt;3. ruangan vip&lt;/div&gt;&lt;div&gt;4. kembali&lt;/div&gt;" style="shape=parallelogram;perimeter=parallelogramPerimeter;whiteSpace=wrap;html=1;fixedSize=1;strokeWidth=2;rounded=1;arcSize=12;" parent="1" vertex="1">
          <mxGeometry x="2326" y="3750" width="160" height="90" as="geometry" />
        </mxCell>
        <mxCell id="_80qlgi9Hi1YphbFEvNP-133" value="" style="edgeStyle=orthogonalEdgeStyle;rounded=0;orthogonalLoop=1;jettySize=auto;html=1;" parent="1" source="_80qlgi9Hi1YphbFEvNP-104" target="_80qlgi9Hi1YphbFEvNP-105" edge="1">
          <mxGeometry relative="1" as="geometry" />
        </mxCell>
        <mxCell id="_80qlgi9Hi1YphbFEvNP-142" value="Yes" style="edgeLabel;html=1;align=center;verticalAlign=middle;resizable=0;points=[];" parent="_80qlgi9Hi1YphbFEvNP-133" vertex="1" connectable="0">
          <mxGeometry x="-0.2165" y="1" relative="1" as="geometry">
            <mxPoint as="offset" />
          </mxGeometry>
        </mxCell>
        <mxCell id="_80qlgi9Hi1YphbFEvNP-134" value="" style="edgeStyle=orthogonalEdgeStyle;rounded=0;orthogonalLoop=1;jettySize=auto;html=1;" parent="1" source="_80qlgi9Hi1YphbFEvNP-104" target="_80qlgi9Hi1YphbFEvNP-106" edge="1">
          <mxGeometry relative="1" as="geometry" />
        </mxCell>
        <mxCell id="_80qlgi9Hi1YphbFEvNP-143" value="No" style="edgeLabel;html=1;align=center;verticalAlign=middle;resizable=0;points=[];" parent="_80qlgi9Hi1YphbFEvNP-134" vertex="1" connectable="0">
          <mxGeometry x="-0.3402" y="-1" relative="1" as="geometry">
            <mxPoint as="offset" />
          </mxGeometry>
        </mxCell>
        <mxCell id="_80qlgi9Hi1YphbFEvNP-104" value="Pilih == 1" style="strokeWidth=2;html=1;shape=mxgraph.flowchart.decision;whiteSpace=wrap;" parent="1" vertex="1">
          <mxGeometry x="2530" y="3912" width="100" height="100" as="geometry" />
        </mxCell>
        <mxCell id="SSxU0Ux77sJdYV8XLshP-33" style="edgeStyle=orthogonalEdgeStyle;rounded=0;orthogonalLoop=1;jettySize=auto;html=1;exitX=0.5;exitY=1;exitDx=0;exitDy=0;entryX=0;entryY=0.5;entryDx=0;entryDy=0;" edge="1" parent="1" source="_80qlgi9Hi1YphbFEvNP-105" target="_80qlgi9Hi1YphbFEvNP-103">
          <mxGeometry relative="1" as="geometry">
            <Array as="points">
              <mxPoint x="2580" y="4190" />
              <mxPoint x="2290" y="4190" />
              <mxPoint x="2290" y="3795" />
            </Array>
          </mxGeometry>
        </mxCell>
        <mxCell id="_80qlgi9Hi1YphbFEvNP-105" value="Hapus_data_&lt;div&gt;ruangan_no-smoking&lt;/div&gt;" style="shape=process;whiteSpace=wrap;html=1;backgroundOutline=1;" parent="1" vertex="1">
          <mxGeometry x="2520" y="4110" width="120" height="60" as="geometry" />
        </mxCell>
        <mxCell id="_80qlgi9Hi1YphbFEvNP-135" value="" style="edgeStyle=orthogonalEdgeStyle;rounded=0;orthogonalLoop=1;jettySize=auto;html=1;" parent="1" source="_80qlgi9Hi1YphbFEvNP-106" target="_80qlgi9Hi1YphbFEvNP-107" edge="1">
          <mxGeometry relative="1" as="geometry" />
        </mxCell>
        <mxCell id="_80qlgi9Hi1YphbFEvNP-145" value="Yes" style="edgeLabel;html=1;align=center;verticalAlign=middle;resizable=0;points=[];" parent="_80qlgi9Hi1YphbFEvNP-135" vertex="1" connectable="0">
          <mxGeometry x="-0.278" y="1" relative="1" as="geometry">
            <mxPoint as="offset" />
          </mxGeometry>
        </mxCell>
        <mxCell id="SSxU0Ux77sJdYV8XLshP-24" value="" style="edgeStyle=orthogonalEdgeStyle;rounded=0;orthogonalLoop=1;jettySize=auto;html=1;" edge="1" parent="1" source="_80qlgi9Hi1YphbFEvNP-106" target="_80qlgi9Hi1YphbFEvNP-108">
          <mxGeometry relative="1" as="geometry" />
        </mxCell>
        <mxCell id="SSxU0Ux77sJdYV8XLshP-28" value="No" style="edgeLabel;html=1;align=center;verticalAlign=middle;resizable=0;points=[];" vertex="1" connectable="0" parent="SSxU0Ux77sJdYV8XLshP-24">
          <mxGeometry x="-0.103" y="4" relative="1" as="geometry">
            <mxPoint as="offset" />
          </mxGeometry>
        </mxCell>
        <mxCell id="_80qlgi9Hi1YphbFEvNP-106" value="Pilih == 2" style="strokeWidth=2;html=1;shape=mxgraph.flowchart.decision;whiteSpace=wrap;" parent="1" vertex="1">
          <mxGeometry x="2705" y="3912" width="100" height="100" as="geometry" />
        </mxCell>
        <mxCell id="SSxU0Ux77sJdYV8XLshP-34" style="edgeStyle=orthogonalEdgeStyle;rounded=0;orthogonalLoop=1;jettySize=auto;html=1;exitX=0.5;exitY=1;exitDx=0;exitDy=0;" edge="1" parent="1" source="_80qlgi9Hi1YphbFEvNP-107">
          <mxGeometry relative="1" as="geometry">
            <mxPoint x="2570" y="4190" as="targetPoint" />
            <Array as="points">
              <mxPoint x="2755" y="4192" />
              <mxPoint x="2643" y="4192" />
              <mxPoint x="2643" y="4190" />
            </Array>
          </mxGeometry>
        </mxCell>
        <mxCell id="_80qlgi9Hi1YphbFEvNP-107" value="&lt;br&gt;&lt;span style=&quot;color: rgb(0, 0, 0); font-family: Helvetica; font-size: 12px; font-style: normal; font-variant-ligatures: normal; font-variant-caps: normal; font-weight: 400; letter-spacing: normal; orphans: 2; text-align: center; text-indent: 0px; text-transform: none; widows: 2; word-spacing: 0px; -webkit-text-stroke-width: 0px; white-space: normal; background-color: rgb(251, 251, 251); text-decoration-thickness: initial; text-decoration-style: initial; text-decoration-color: initial; display: inline !important; float: none;&quot;&gt;Hapus_data_&lt;/span&gt;&lt;div style=&quot;forced-color-adjust: none; color: rgb(0, 0, 0); font-family: Helvetica; font-size: 12px; font-style: normal; font-variant-ligatures: normal; font-variant-caps: normal; font-weight: 400; letter-spacing: normal; orphans: 2; text-align: center; text-indent: 0px; text-transform: none; widows: 2; word-spacing: 0px; -webkit-text-stroke-width: 0px; white-space: normal; background-color: rgb(251, 251, 251); text-decoration-thickness: initial; text-decoration-style: initial; text-decoration-color: initial;&quot;&gt;ruangan_&lt;/div&gt;&lt;div style=&quot;forced-color-adjust: none; color: rgb(0, 0, 0); font-family: Helvetica; font-size: 12px; font-style: normal; font-variant-ligatures: normal; font-variant-caps: normal; font-weight: 400; letter-spacing: normal; orphans: 2; text-align: center; text-indent: 0px; text-transform: none; widows: 2; word-spacing: 0px; -webkit-text-stroke-width: 0px; white-space: normal; background-color: rgb(251, 251, 251); text-decoration-thickness: initial; text-decoration-style: initial; text-decoration-color: initial;&quot;&gt;smoking&lt;/div&gt;&lt;div&gt;&lt;br/&gt;&lt;/div&gt;" style="shape=process;whiteSpace=wrap;html=1;backgroundOutline=1;" parent="1" vertex="1">
          <mxGeometry x="2695" y="4112" width="120" height="60" as="geometry" />
        </mxCell>
        <mxCell id="_80qlgi9Hi1YphbFEvNP-137" value="" style="edgeStyle=orthogonalEdgeStyle;rounded=0;orthogonalLoop=1;jettySize=auto;html=1;" parent="1" source="_80qlgi9Hi1YphbFEvNP-108" target="_80qlgi9Hi1YphbFEvNP-109" edge="1">
          <mxGeometry relative="1" as="geometry" />
        </mxCell>
        <mxCell id="_80qlgi9Hi1YphbFEvNP-146" value="Yes" style="edgeLabel;html=1;align=center;verticalAlign=middle;resizable=0;points=[];" parent="_80qlgi9Hi1YphbFEvNP-137" vertex="1" connectable="0">
          <mxGeometry x="-0.2309" y="3" relative="1" as="geometry">
            <mxPoint as="offset" />
          </mxGeometry>
        </mxCell>
        <mxCell id="SSxU0Ux77sJdYV8XLshP-25" value="" style="edgeStyle=orthogonalEdgeStyle;rounded=0;orthogonalLoop=1;jettySize=auto;html=1;" edge="1" parent="1" source="_80qlgi9Hi1YphbFEvNP-108" target="_80qlgi9Hi1YphbFEvNP-110">
          <mxGeometry relative="1" as="geometry" />
        </mxCell>
        <mxCell id="SSxU0Ux77sJdYV8XLshP-29" value="No" style="edgeLabel;html=1;align=center;verticalAlign=middle;resizable=0;points=[];" vertex="1" connectable="0" parent="SSxU0Ux77sJdYV8XLshP-25">
          <mxGeometry x="-0.1913" y="2" relative="1" as="geometry">
            <mxPoint as="offset" />
          </mxGeometry>
        </mxCell>
        <mxCell id="_80qlgi9Hi1YphbFEvNP-108" value="Pilih == 3" style="strokeWidth=2;html=1;shape=mxgraph.flowchart.decision;whiteSpace=wrap;" parent="1" vertex="1">
          <mxGeometry x="2860" y="3912" width="100" height="100" as="geometry" />
        </mxCell>
        <mxCell id="SSxU0Ux77sJdYV8XLshP-35" style="edgeStyle=orthogonalEdgeStyle;rounded=0;orthogonalLoop=1;jettySize=auto;html=1;exitX=0.5;exitY=1;exitDx=0;exitDy=0;" edge="1" parent="1">
          <mxGeometry relative="1" as="geometry">
            <mxPoint x="2754" y="4190" as="targetPoint" />
            <mxPoint x="2904" y="4169" as="sourcePoint" />
            <Array as="points">
              <mxPoint x="2904" y="4189" />
              <mxPoint x="2800" y="4189" />
              <mxPoint x="2755" y="4190" />
            </Array>
          </mxGeometry>
        </mxCell>
        <mxCell id="_80qlgi9Hi1YphbFEvNP-109" value="Hapus_data_&lt;div&gt;ruangan_vip&lt;/div&gt;" style="shape=process;whiteSpace=wrap;html=1;backgroundOutline=1;" parent="1" vertex="1">
          <mxGeometry x="2850" y="4109" width="120" height="60" as="geometry" />
        </mxCell>
        <mxCell id="_80qlgi9Hi1YphbFEvNP-139" value="" style="edgeStyle=orthogonalEdgeStyle;rounded=0;orthogonalLoop=1;jettySize=auto;html=1;" parent="1" source="_80qlgi9Hi1YphbFEvNP-110" target="_80qlgi9Hi1YphbFEvNP-111" edge="1">
          <mxGeometry relative="1" as="geometry" />
        </mxCell>
        <mxCell id="_80qlgi9Hi1YphbFEvNP-148" value="Yes" style="edgeLabel;html=1;align=center;verticalAlign=middle;resizable=0;points=[];" parent="_80qlgi9Hi1YphbFEvNP-139" vertex="1" connectable="0">
          <mxGeometry x="-0.0063" y="-1" relative="1" as="geometry">
            <mxPoint as="offset" />
          </mxGeometry>
        </mxCell>
        <mxCell id="_80qlgi9Hi1YphbFEvNP-110" value="Pilih == 4" style="strokeWidth=2;html=1;shape=mxgraph.flowchart.decision;whiteSpace=wrap;" parent="1" vertex="1">
          <mxGeometry x="3020" y="3911" width="100" height="100" as="geometry" />
        </mxCell>
        <mxCell id="SSxU0Ux77sJdYV8XLshP-36" style="edgeStyle=orthogonalEdgeStyle;rounded=0;orthogonalLoop=1;jettySize=auto;html=1;exitX=0.5;exitY=1;exitDx=0;exitDy=0;" edge="1" parent="1" source="_80qlgi9Hi1YphbFEvNP-111">
          <mxGeometry relative="1" as="geometry">
            <mxPoint x="2230" y="3780" as="targetPoint" />
            <Array as="points">
              <mxPoint x="3070" y="4240" />
              <mxPoint x="2231" y="4240" />
              <mxPoint x="2231" y="3780" />
            </Array>
          </mxGeometry>
        </mxCell>
        <mxCell id="_80qlgi9Hi1YphbFEvNP-111" value="output&lt;div&gt;anda kembali&lt;/div&gt;" style="shape=parallelogram;perimeter=parallelogramPerimeter;whiteSpace=wrap;html=1;fixedSize=1;strokeWidth=2;rounded=1;arcSize=12;" parent="1" vertex="1">
          <mxGeometry x="3010" y="4111" width="120" height="60" as="geometry" />
        </mxCell>
        <mxCell id="SSxU0Ux77sJdYV8XLshP-37" style="edgeStyle=orthogonalEdgeStyle;rounded=0;orthogonalLoop=1;jettySize=auto;html=1;exitX=0.5;exitY=1;exitDx=0;exitDy=0;" edge="1" parent="1" source="_80qlgi9Hi1YphbFEvNP-112">
          <mxGeometry relative="1" as="geometry">
            <mxPoint x="3070" y="4240" as="targetPoint" />
            <Array as="points">
              <mxPoint x="3200" y="4240" />
            </Array>
          </mxGeometry>
        </mxCell>
        <mxCell id="_80qlgi9Hi1YphbFEvNP-112" value="output&lt;div&gt;tidak valid&lt;/div&gt;" style="shape=parallelogram;perimeter=parallelogramPerimeter;whiteSpace=wrap;html=1;fixedSize=1;strokeWidth=2;rounded=1;arcSize=12;" parent="1" vertex="1">
          <mxGeometry x="3140" y="4010" width="120" height="60" as="geometry" />
        </mxCell>
        <mxCell id="_80qlgi9Hi1YphbFEvNP-155" value="" style="edgeStyle=orthogonalEdgeStyle;rounded=0;orthogonalLoop=1;jettySize=auto;html=1;" parent="1" source="_80qlgi9Hi1YphbFEvNP-113" target="_80qlgi9Hi1YphbFEvNP-114" edge="1">
          <mxGeometry relative="1" as="geometry" />
        </mxCell>
        <mxCell id="_80qlgi9Hi1YphbFEvNP-156" value="Yes" style="edgeLabel;html=1;align=center;verticalAlign=middle;resizable=0;points=[];" parent="_80qlgi9Hi1YphbFEvNP-155" vertex="1" connectable="0">
          <mxGeometry x="-0.05" y="3" relative="1" as="geometry">
            <mxPoint as="offset" />
          </mxGeometry>
        </mxCell>
        <mxCell id="_80qlgi9Hi1YphbFEvNP-157" style="edgeStyle=orthogonalEdgeStyle;rounded=0;orthogonalLoop=1;jettySize=auto;html=1;exitX=1;exitY=0.5;exitDx=0;exitDy=0;exitPerimeter=0;entryX=0.5;entryY=0;entryDx=0;entryDy=0;" parent="1" source="_80qlgi9Hi1YphbFEvNP-113" target="_80qlgi9Hi1YphbFEvNP-115" edge="1">
          <mxGeometry relative="1" as="geometry" />
        </mxCell>
        <mxCell id="_80qlgi9Hi1YphbFEvNP-158" value="No" style="edgeLabel;html=1;align=center;verticalAlign=middle;resizable=0;points=[];" parent="_80qlgi9Hi1YphbFEvNP-157" vertex="1" connectable="0">
          <mxGeometry x="-0.3081" relative="1" as="geometry">
            <mxPoint as="offset" />
          </mxGeometry>
        </mxCell>
        <mxCell id="_80qlgi9Hi1YphbFEvNP-113" value="Pilih == 4" style="strokeWidth=2;html=1;shape=mxgraph.flowchart.decision;whiteSpace=wrap;" parent="1" vertex="1">
          <mxGeometry x="2540" y="3520" width="100" height="100" as="geometry" />
        </mxCell>
        <mxCell id="_80qlgi9Hi1YphbFEvNP-114" value="output&lt;div&gt;anda kembali&lt;/div&gt;" style="shape=parallelogram;perimeter=parallelogramPerimeter;whiteSpace=wrap;html=1;fixedSize=1;strokeWidth=2;rounded=1;arcSize=12;" parent="1" vertex="1">
          <mxGeometry x="2531" y="3720" width="120" height="60" as="geometry" />
        </mxCell>
        <mxCell id="_80qlgi9Hi1YphbFEvNP-115" value="output&lt;div&gt;tidak valid&lt;/div&gt;" style="shape=parallelogram;perimeter=parallelogramPerimeter;whiteSpace=wrap;html=1;fixedSize=1;strokeWidth=2;rounded=1;arcSize=12;" parent="1" vertex="1">
          <mxGeometry x="2650" y="3620" width="120" height="60" as="geometry" />
        </mxCell>
        <mxCell id="_80qlgi9Hi1YphbFEvNP-132" value="" style="edgeStyle=orthogonalEdgeStyle;rounded=0;orthogonalLoop=1;jettySize=auto;html=1;" parent="1" source="_80qlgi9Hi1YphbFEvNP-130" target="_80qlgi9Hi1YphbFEvNP-104" edge="1">
          <mxGeometry relative="1" as="geometry" />
        </mxCell>
        <mxCell id="_80qlgi9Hi1YphbFEvNP-130" value="input&lt;div&gt;pilih :&lt;/div&gt;" style="shape=parallelogram;html=1;strokeWidth=2;perimeter=parallelogramPerimeter;whiteSpace=wrap;rounded=1;arcSize=12;size=0.23;" parent="1" vertex="1">
          <mxGeometry x="2356" y="3931" width="100" height="60" as="geometry" />
        </mxCell>
        <mxCell id="_80qlgi9Hi1YphbFEvNP-140" style="edgeStyle=orthogonalEdgeStyle;rounded=0;orthogonalLoop=1;jettySize=auto;html=1;exitX=1;exitY=0.5;exitDx=0;exitDy=0;exitPerimeter=0;entryX=0.575;entryY=0.013;entryDx=0;entryDy=0;entryPerimeter=0;" parent="1" source="_80qlgi9Hi1YphbFEvNP-110" target="_80qlgi9Hi1YphbFEvNP-112" edge="1">
          <mxGeometry relative="1" as="geometry" />
        </mxCell>
        <mxCell id="_80qlgi9Hi1YphbFEvNP-149" value="No" style="edgeLabel;html=1;align=center;verticalAlign=middle;resizable=0;points=[];" parent="_80qlgi9Hi1YphbFEvNP-140" vertex="1" connectable="0">
          <mxGeometry x="-0.3969" y="-4" relative="1" as="geometry">
            <mxPoint as="offset" />
          </mxGeometry>
        </mxCell>
        <mxCell id="_80qlgi9Hi1YphbFEvNP-172" value="" style="edgeStyle=orthogonalEdgeStyle;rounded=0;orthogonalLoop=1;jettySize=auto;html=1;" parent="1" source="_80qlgi9Hi1YphbFEvNP-162" target="_80qlgi9Hi1YphbFEvNP-163" edge="1">
          <mxGeometry relative="1" as="geometry" />
        </mxCell>
        <mxCell id="_80qlgi9Hi1YphbFEvNP-162" value="output&lt;div&gt;1. makanan&lt;/div&gt;&lt;div&gt;2. minuman&lt;/div&gt;&lt;div&gt;3. kembali&lt;/div&gt;" style="shape=parallelogram;perimeter=parallelogramPerimeter;whiteSpace=wrap;html=1;fixedSize=1;strokeWidth=2;" parent="1" vertex="1">
          <mxGeometry x="3090" y="3380" width="120" height="60" as="geometry" />
        </mxCell>
        <mxCell id="_80qlgi9Hi1YphbFEvNP-173" value="" style="edgeStyle=orthogonalEdgeStyle;rounded=0;orthogonalLoop=1;jettySize=auto;html=1;" parent="1" source="_80qlgi9Hi1YphbFEvNP-163" target="_80qlgi9Hi1YphbFEvNP-164" edge="1">
          <mxGeometry relative="1" as="geometry" />
        </mxCell>
        <mxCell id="_80qlgi9Hi1YphbFEvNP-163" value="input&lt;div&gt;pilih :&lt;/div&gt;" style="shape=parallelogram;html=1;strokeWidth=2;perimeter=parallelogramPerimeter;whiteSpace=wrap;rounded=1;arcSize=12;size=0.23;" parent="1" vertex="1">
          <mxGeometry x="3100" y="3530" width="100" height="60" as="geometry" />
        </mxCell>
        <mxCell id="SSxU0Ux77sJdYV8XLshP-38" value="" style="edgeStyle=orthogonalEdgeStyle;rounded=0;orthogonalLoop=1;jettySize=auto;html=1;" edge="1" parent="1" source="_80qlgi9Hi1YphbFEvNP-164" target="_80qlgi9Hi1YphbFEvNP-165">
          <mxGeometry relative="1" as="geometry" />
        </mxCell>
        <mxCell id="SSxU0Ux77sJdYV8XLshP-39" value="Yes" style="edgeLabel;html=1;align=center;verticalAlign=middle;resizable=0;points=[];" vertex="1" connectable="0" parent="SSxU0Ux77sJdYV8XLshP-38">
          <mxGeometry x="-0.2896" y="2" relative="1" as="geometry">
            <mxPoint as="offset" />
          </mxGeometry>
        </mxCell>
        <mxCell id="SSxU0Ux77sJdYV8XLshP-40" value="" style="edgeStyle=orthogonalEdgeStyle;rounded=0;orthogonalLoop=1;jettySize=auto;html=1;" edge="1" parent="1" source="_80qlgi9Hi1YphbFEvNP-164" target="_80qlgi9Hi1YphbFEvNP-167">
          <mxGeometry relative="1" as="geometry" />
        </mxCell>
        <mxCell id="SSxU0Ux77sJdYV8XLshP-41" value="No" style="edgeLabel;html=1;align=center;verticalAlign=middle;resizable=0;points=[];" vertex="1" connectable="0" parent="SSxU0Ux77sJdYV8XLshP-40">
          <mxGeometry x="-0.3221" y="2" relative="1" as="geometry">
            <mxPoint as="offset" />
          </mxGeometry>
        </mxCell>
        <mxCell id="_80qlgi9Hi1YphbFEvNP-164" value="pilih = 1" style="rhombus;whiteSpace=wrap;html=1;strokeWidth=2;" parent="1" vertex="1">
          <mxGeometry x="3291" y="3520" width="80" height="80" as="geometry" />
        </mxCell>
        <mxCell id="SSxU0Ux77sJdYV8XLshP-44" style="edgeStyle=orthogonalEdgeStyle;rounded=0;orthogonalLoop=1;jettySize=auto;html=1;exitX=0.5;exitY=1;exitDx=0;exitDy=0;entryX=0;entryY=0.25;entryDx=0;entryDy=0;" edge="1" parent="1" source="_80qlgi9Hi1YphbFEvNP-165" target="_80qlgi9Hi1YphbFEvNP-162">
          <mxGeometry relative="1" as="geometry">
            <Array as="points">
              <mxPoint x="3330" y="3760" />
              <mxPoint x="3060" y="3760" />
              <mxPoint x="3060" y="3399" />
            </Array>
          </mxGeometry>
        </mxCell>
        <mxCell id="_80qlgi9Hi1YphbFEvNP-165" value="&lt;br&gt;&lt;span style=&quot;color: rgb(0, 0, 0); font-family: Helvetica; font-size: 12px; font-style: normal; font-variant-ligatures: normal; font-variant-caps: normal; font-weight: 400; letter-spacing: normal; orphans: 2; text-align: center; text-indent: 0px; text-transform: none; widows: 2; word-spacing: 0px; -webkit-text-stroke-width: 0px; white-space: normal; background-color: rgb(251, 251, 251); text-decoration-thickness: initial; text-decoration-style: initial; text-decoration-color: initial; display: inline !important; float: none;&quot;&gt;lihat pesanan pelanggan makanan()&lt;/span&gt;&lt;div&gt;&lt;br&gt;&lt;/div&gt;" style="shape=process;whiteSpace=wrap;html=1;backgroundOutline=1;" parent="1" vertex="1">
          <mxGeometry x="3270" y="3660" width="120" height="60" as="geometry" />
        </mxCell>
        <mxCell id="SSxU0Ux77sJdYV8XLshP-45" style="edgeStyle=orthogonalEdgeStyle;rounded=0;orthogonalLoop=1;jettySize=auto;html=1;exitX=0.5;exitY=1;exitDx=0;exitDy=0;" edge="1" parent="1" source="_80qlgi9Hi1YphbFEvNP-166">
          <mxGeometry relative="1" as="geometry">
            <mxPoint x="3320" y="3760" as="targetPoint" />
            <Array as="points">
              <mxPoint x="3531" y="3760" />
            </Array>
          </mxGeometry>
        </mxCell>
        <mxCell id="_80qlgi9Hi1YphbFEvNP-166" value="&lt;br&gt;lihat pesanan pelanggan minuman()&lt;div&gt;&lt;br&gt;&lt;/div&gt;" style="shape=process;whiteSpace=wrap;html=1;backgroundOutline=1;" parent="1" vertex="1">
          <mxGeometry x="3470.56" y="3660" width="120" height="60" as="geometry" />
        </mxCell>
        <mxCell id="_80qlgi9Hi1YphbFEvNP-183" value="" style="edgeStyle=orthogonalEdgeStyle;rounded=0;orthogonalLoop=1;jettySize=auto;html=1;" parent="1" source="_80qlgi9Hi1YphbFEvNP-167" target="_80qlgi9Hi1YphbFEvNP-168" edge="1">
          <mxGeometry relative="1" as="geometry" />
        </mxCell>
        <mxCell id="_80qlgi9Hi1YphbFEvNP-219" value="No" style="edgeLabel;html=1;align=center;verticalAlign=middle;resizable=0;points=[];" parent="_80qlgi9Hi1YphbFEvNP-183" vertex="1" connectable="0">
          <mxGeometry x="-0.2034" y="-3" relative="1" as="geometry">
            <mxPoint as="offset" />
          </mxGeometry>
        </mxCell>
        <mxCell id="SSxU0Ux77sJdYV8XLshP-42" value="" style="edgeStyle=orthogonalEdgeStyle;rounded=0;orthogonalLoop=1;jettySize=auto;html=1;" edge="1" parent="1" source="_80qlgi9Hi1YphbFEvNP-167" target="_80qlgi9Hi1YphbFEvNP-166">
          <mxGeometry relative="1" as="geometry" />
        </mxCell>
        <mxCell id="SSxU0Ux77sJdYV8XLshP-43" value="Yes" style="edgeLabel;html=1;align=center;verticalAlign=middle;resizable=0;points=[];" vertex="1" connectable="0" parent="SSxU0Ux77sJdYV8XLshP-42">
          <mxGeometry x="-0.2308" y="6" relative="1" as="geometry">
            <mxPoint as="offset" />
          </mxGeometry>
        </mxCell>
        <mxCell id="_80qlgi9Hi1YphbFEvNP-167" value="pilih = 2" style="rhombus;whiteSpace=wrap;html=1;strokeWidth=2;" parent="1" vertex="1">
          <mxGeometry x="3490" y="3520" width="80" height="80" as="geometry" />
        </mxCell>
        <mxCell id="_80qlgi9Hi1YphbFEvNP-184" value="" style="edgeStyle=orthogonalEdgeStyle;rounded=0;orthogonalLoop=1;jettySize=auto;html=1;" parent="1" source="_80qlgi9Hi1YphbFEvNP-168" target="_80qlgi9Hi1YphbFEvNP-169" edge="1">
          <mxGeometry relative="1" as="geometry" />
        </mxCell>
        <mxCell id="_80qlgi9Hi1YphbFEvNP-220" value="Yes" style="edgeLabel;html=1;align=center;verticalAlign=middle;resizable=0;points=[];" parent="_80qlgi9Hi1YphbFEvNP-184" vertex="1" connectable="0">
          <mxGeometry x="0.1559" y="3" relative="1" as="geometry">
            <mxPoint as="offset" />
          </mxGeometry>
        </mxCell>
        <mxCell id="_80qlgi9Hi1YphbFEvNP-185" style="edgeStyle=orthogonalEdgeStyle;rounded=0;orthogonalLoop=1;jettySize=auto;html=1;exitX=1;exitY=0.5;exitDx=0;exitDy=0;entryX=0.5;entryY=0;entryDx=0;entryDy=0;" parent="1" source="_80qlgi9Hi1YphbFEvNP-168" target="_80qlgi9Hi1YphbFEvNP-170" edge="1">
          <mxGeometry relative="1" as="geometry" />
        </mxCell>
        <mxCell id="_80qlgi9Hi1YphbFEvNP-221" value="No" style="edgeLabel;html=1;align=center;verticalAlign=middle;resizable=0;points=[];" parent="_80qlgi9Hi1YphbFEvNP-185" vertex="1" connectable="0">
          <mxGeometry x="-0.3879" relative="1" as="geometry">
            <mxPoint as="offset" />
          </mxGeometry>
        </mxCell>
        <mxCell id="_80qlgi9Hi1YphbFEvNP-168" value="pilih = 3" style="rhombus;whiteSpace=wrap;html=1;strokeWidth=2;" parent="1" vertex="1">
          <mxGeometry x="3680" y="3520" width="80" height="80" as="geometry" />
        </mxCell>
        <mxCell id="_80qlgi9Hi1YphbFEvNP-169" value="output&lt;div&gt;anda kembali&lt;/div&gt;" style="shape=parallelogram;perimeter=parallelogramPerimeter;whiteSpace=wrap;html=1;fixedSize=1;strokeWidth=2;" parent="1" vertex="1">
          <mxGeometry x="3660" y="3675" width="120" height="60" as="geometry" />
        </mxCell>
        <mxCell id="_80qlgi9Hi1YphbFEvNP-170" value="output&lt;div&gt;tidak valid&lt;/div&gt;" style="shape=parallelogram;perimeter=parallelogramPerimeter;whiteSpace=wrap;html=1;fixedSize=1;strokeWidth=2;" parent="1" vertex="1">
          <mxGeometry x="3800" y="3610" width="120" height="60" as="geometry" />
        </mxCell>
        <mxCell id="_80qlgi9Hi1YphbFEvNP-179" style="edgeStyle=orthogonalEdgeStyle;rounded=0;orthogonalLoop=1;jettySize=auto;html=1;exitX=0.5;exitY=1;exitDx=0;exitDy=0;" parent="1" source="_80qlgi9Hi1YphbFEvNP-177" edge="1">
          <mxGeometry relative="1" as="geometry">
            <mxPoint x="250" y="1670" as="targetPoint" />
            <Array as="points">
              <mxPoint x="429" y="1670" />
            </Array>
          </mxGeometry>
        </mxCell>
        <mxCell id="_80qlgi9Hi1YphbFEvNP-177" value="&lt;h3&gt;4&lt;/h3&gt;" style="ellipse;whiteSpace=wrap;html=1;aspect=fixed;fillColor=#7EA6E0;" parent="1" vertex="1">
          <mxGeometry x="389" y="1478" width="80" height="80" as="geometry" />
        </mxCell>
        <mxCell id="_80qlgi9Hi1YphbFEvNP-188" style="edgeStyle=orthogonalEdgeStyle;rounded=0;orthogonalLoop=1;jettySize=auto;html=1;exitX=0.5;exitY=1;exitDx=0;exitDy=0;" parent="1" source="_80qlgi9Hi1YphbFEvNP-186" edge="1">
          <mxGeometry relative="1" as="geometry">
            <mxPoint x="430" y="1670" as="targetPoint" />
            <Array as="points">
              <mxPoint x="690" y="1670" />
            </Array>
          </mxGeometry>
        </mxCell>
        <mxCell id="_80qlgi9Hi1YphbFEvNP-186" value="&lt;h3&gt;5&lt;/h3&gt;" style="ellipse;whiteSpace=wrap;html=1;aspect=fixed;fillColor=#7EA6E0;" parent="1" vertex="1">
          <mxGeometry x="650" y="1484" width="80" height="80" as="geometry" />
        </mxCell>
        <mxCell id="SSxU0Ux77sJdYV8XLshP-46" value="" style="edgeStyle=orthogonalEdgeStyle;rounded=0;orthogonalLoop=1;jettySize=auto;html=1;" edge="1" parent="1" source="_80qlgi9Hi1YphbFEvNP-189" target="_80qlgi9Hi1YphbFEvNP-206">
          <mxGeometry relative="1" as="geometry" />
        </mxCell>
        <mxCell id="_80qlgi9Hi1YphbFEvNP-189" value="output&lt;div&gt;1. ruangan no smoking&lt;/div&gt;&lt;div&gt;2. ruangan smoking&lt;/div&gt;&lt;div&gt;3. ruangan vip&lt;/div&gt;&lt;div&gt;4. kembali&lt;/div&gt;" style="shape=parallelogram;perimeter=parallelogramPerimeter;whiteSpace=wrap;html=1;fixedSize=1;strokeWidth=2;" parent="1" vertex="1">
          <mxGeometry x="3696" y="4020" width="170" height="80" as="geometry" />
        </mxCell>
        <mxCell id="SSxU0Ux77sJdYV8XLshP-53" style="edgeStyle=orthogonalEdgeStyle;rounded=0;orthogonalLoop=1;jettySize=auto;html=1;exitX=0.5;exitY=1;exitDx=0;exitDy=0;entryX=0;entryY=0.5;entryDx=0;entryDy=0;" edge="1" parent="1" source="_80qlgi9Hi1YphbFEvNP-191" target="_80qlgi9Hi1YphbFEvNP-189">
          <mxGeometry relative="1" as="geometry">
            <Array as="points">
              <mxPoint x="3930" y="4420" />
              <mxPoint x="3660" y="4420" />
              <mxPoint x="3660" y="4060" />
            </Array>
          </mxGeometry>
        </mxCell>
        <mxCell id="_80qlgi9Hi1YphbFEvNP-191" value="Lihat_pesanan_&lt;div&gt;no smoking&lt;/div&gt;" style="shape=process;whiteSpace=wrap;html=1;backgroundOutline=1;size=0.16666666666666666;" parent="1" vertex="1">
          <mxGeometry x="3860" y="4320" width="140" height="60" as="geometry" />
        </mxCell>
        <mxCell id="SSxU0Ux77sJdYV8XLshP-54" style="edgeStyle=orthogonalEdgeStyle;rounded=0;orthogonalLoop=1;jettySize=auto;html=1;exitX=0.5;exitY=1;exitDx=0;exitDy=0;" edge="1" parent="1" source="_80qlgi9Hi1YphbFEvNP-193">
          <mxGeometry relative="1" as="geometry">
            <mxPoint x="3920" y="4420" as="targetPoint" />
            <Array as="points">
              <mxPoint x="4110" y="4420" />
            </Array>
          </mxGeometry>
        </mxCell>
        <mxCell id="_80qlgi9Hi1YphbFEvNP-193" value="Lihat_pesanan_&lt;div&gt;smoking&lt;/div&gt;" style="shape=process;whiteSpace=wrap;html=1;backgroundOutline=1;" parent="1" vertex="1">
          <mxGeometry x="4050" y="4320" width="120" height="60" as="geometry" />
        </mxCell>
        <mxCell id="SSxU0Ux77sJdYV8XLshP-55" style="edgeStyle=orthogonalEdgeStyle;rounded=0;orthogonalLoop=1;jettySize=auto;html=1;exitX=0.5;exitY=1;exitDx=0;exitDy=0;" edge="1" parent="1" source="_80qlgi9Hi1YphbFEvNP-195">
          <mxGeometry relative="1" as="geometry">
            <mxPoint x="4090" y="4420" as="targetPoint" />
            <Array as="points">
              <mxPoint x="4250" y="4420" />
            </Array>
          </mxGeometry>
        </mxCell>
        <mxCell id="_80qlgi9Hi1YphbFEvNP-195" value="Lihat_pesanan_&lt;div&gt;Vip&lt;/div&gt;" style="shape=process;whiteSpace=wrap;html=1;backgroundOutline=1;" parent="1" vertex="1">
          <mxGeometry x="4190" y="4320" width="120" height="60" as="geometry" />
        </mxCell>
        <mxCell id="_80qlgi9Hi1YphbFEvNP-198" value="output&lt;div&gt;tidak valid&lt;/div&gt;" style="shape=parallelogram;perimeter=parallelogramPerimeter;whiteSpace=wrap;html=1;fixedSize=1;strokeWidth=2;" parent="1" vertex="1">
          <mxGeometry x="4500" y="4229" width="120" height="60" as="geometry" />
        </mxCell>
        <mxCell id="_80qlgi9Hi1YphbFEvNP-200" value="" style="edgeStyle=orthogonalEdgeStyle;rounded=0;orthogonalLoop=1;jettySize=auto;html=1;" parent="1" source="_80qlgi9Hi1YphbFEvNP-199" target="_80qlgi9Hi1YphbFEvNP-189" edge="1">
          <mxGeometry relative="1" as="geometry" />
        </mxCell>
        <mxCell id="_80qlgi9Hi1YphbFEvNP-199" value="&lt;h3&gt;6&lt;/h3&gt;" style="ellipse;whiteSpace=wrap;html=1;aspect=fixed;fillColor=#7EA6E0;" parent="1" vertex="1">
          <mxGeometry x="3740" y="3870" width="80" height="80" as="geometry" />
        </mxCell>
        <mxCell id="_80qlgi9Hi1YphbFEvNP-203" value="" style="edgeStyle=orthogonalEdgeStyle;rounded=0;orthogonalLoop=1;jettySize=auto;html=1;" parent="1" source="_80qlgi9Hi1YphbFEvNP-202" target="_80qlgi9Hi1YphbFEvNP-195" edge="1">
          <mxGeometry relative="1" as="geometry" />
        </mxCell>
        <mxCell id="_80qlgi9Hi1YphbFEvNP-226" value="Yes" style="edgeLabel;html=1;align=center;verticalAlign=middle;resizable=0;points=[];" parent="_80qlgi9Hi1YphbFEvNP-203" vertex="1" connectable="0">
          <mxGeometry x="-0.3576" y="-3" relative="1" as="geometry">
            <mxPoint as="offset" />
          </mxGeometry>
        </mxCell>
        <mxCell id="_80qlgi9Hi1YphbFEvNP-231" value="" style="edgeStyle=orthogonalEdgeStyle;rounded=0;orthogonalLoop=1;jettySize=auto;html=1;" parent="1" source="_80qlgi9Hi1YphbFEvNP-202" target="_80qlgi9Hi1YphbFEvNP-230" edge="1">
          <mxGeometry relative="1" as="geometry" />
        </mxCell>
        <mxCell id="_80qlgi9Hi1YphbFEvNP-232" value="No" style="edgeLabel;html=1;align=center;verticalAlign=middle;resizable=0;points=[];" parent="_80qlgi9Hi1YphbFEvNP-231" vertex="1" connectable="0">
          <mxGeometry x="-0.0706" y="-1" relative="1" as="geometry">
            <mxPoint as="offset" />
          </mxGeometry>
        </mxCell>
        <mxCell id="_80qlgi9Hi1YphbFEvNP-202" value="pilih = 3" style="rhombus;whiteSpace=wrap;html=1;strokeWidth=2;" parent="1" vertex="1">
          <mxGeometry x="4210" y="4159" width="80" height="80" as="geometry" />
        </mxCell>
        <mxCell id="_80qlgi9Hi1YphbFEvNP-211" value="" style="edgeStyle=orthogonalEdgeStyle;rounded=0;orthogonalLoop=1;jettySize=auto;html=1;" parent="1" source="_80qlgi9Hi1YphbFEvNP-204" target="_80qlgi9Hi1YphbFEvNP-202" edge="1">
          <mxGeometry relative="1" as="geometry" />
        </mxCell>
        <mxCell id="_80qlgi9Hi1YphbFEvNP-224" value="No" style="edgeLabel;html=1;align=center;verticalAlign=middle;resizable=0;points=[];" parent="_80qlgi9Hi1YphbFEvNP-211" vertex="1" connectable="0">
          <mxGeometry x="-0.2627" y="4" relative="1" as="geometry">
            <mxPoint as="offset" />
          </mxGeometry>
        </mxCell>
        <mxCell id="_80qlgi9Hi1YphbFEvNP-214" value="" style="edgeStyle=orthogonalEdgeStyle;rounded=0;orthogonalLoop=1;jettySize=auto;html=1;" parent="1" source="_80qlgi9Hi1YphbFEvNP-204" target="_80qlgi9Hi1YphbFEvNP-193" edge="1">
          <mxGeometry relative="1" as="geometry" />
        </mxCell>
        <mxCell id="_80qlgi9Hi1YphbFEvNP-227" value="Yes" style="edgeLabel;html=1;align=center;verticalAlign=middle;resizable=0;points=[];" parent="_80qlgi9Hi1YphbFEvNP-214" vertex="1" connectable="0">
          <mxGeometry x="-0.1224" y="4" relative="1" as="geometry">
            <mxPoint as="offset" />
          </mxGeometry>
        </mxCell>
        <mxCell id="_80qlgi9Hi1YphbFEvNP-204" value="pilih = 2" style="rhombus;whiteSpace=wrap;html=1;strokeWidth=2;" parent="1" vertex="1">
          <mxGeometry x="4070" y="4159" width="80" height="80" as="geometry" />
        </mxCell>
        <mxCell id="_80qlgi9Hi1YphbFEvNP-210" value="" style="edgeStyle=orthogonalEdgeStyle;rounded=0;orthogonalLoop=1;jettySize=auto;html=1;" parent="1" source="_80qlgi9Hi1YphbFEvNP-205" target="_80qlgi9Hi1YphbFEvNP-204" edge="1">
          <mxGeometry relative="1" as="geometry" />
        </mxCell>
        <mxCell id="_80qlgi9Hi1YphbFEvNP-223" value="No" style="edgeLabel;html=1;align=center;verticalAlign=middle;resizable=0;points=[];" parent="_80qlgi9Hi1YphbFEvNP-210" vertex="1" connectable="0">
          <mxGeometry x="-0.1412" relative="1" as="geometry">
            <mxPoint as="offset" />
          </mxGeometry>
        </mxCell>
        <mxCell id="_80qlgi9Hi1YphbFEvNP-213" value="" style="edgeStyle=orthogonalEdgeStyle;rounded=0;orthogonalLoop=1;jettySize=auto;html=1;" parent="1" source="_80qlgi9Hi1YphbFEvNP-205" target="_80qlgi9Hi1YphbFEvNP-191" edge="1">
          <mxGeometry relative="1" as="geometry" />
        </mxCell>
        <mxCell id="_80qlgi9Hi1YphbFEvNP-222" value="Yes" style="edgeLabel;html=1;align=center;verticalAlign=middle;resizable=0;points=[];" parent="_80qlgi9Hi1YphbFEvNP-213" vertex="1" connectable="0">
          <mxGeometry x="-0.2635" relative="1" as="geometry">
            <mxPoint as="offset" />
          </mxGeometry>
        </mxCell>
        <mxCell id="_80qlgi9Hi1YphbFEvNP-205" value="pilih = 1" style="rhombus;whiteSpace=wrap;html=1;strokeWidth=2;" parent="1" vertex="1">
          <mxGeometry x="3890" y="4159" width="80" height="80" as="geometry" />
        </mxCell>
        <mxCell id="_80qlgi9Hi1YphbFEvNP-209" value="" style="edgeStyle=orthogonalEdgeStyle;rounded=0;orthogonalLoop=1;jettySize=auto;html=1;" parent="1" source="_80qlgi9Hi1YphbFEvNP-206" target="_80qlgi9Hi1YphbFEvNP-205" edge="1">
          <mxGeometry relative="1" as="geometry" />
        </mxCell>
        <mxCell id="_80qlgi9Hi1YphbFEvNP-206" value="input&lt;div&gt;pilih :&lt;/div&gt;" style="shape=parallelogram;html=1;strokeWidth=2;perimeter=parallelogramPerimeter;whiteSpace=wrap;rounded=1;arcSize=12;size=0.23;" parent="1" vertex="1">
          <mxGeometry x="3731" y="4169" width="100" height="60" as="geometry" />
        </mxCell>
        <mxCell id="_80qlgi9Hi1YphbFEvNP-236" value="" style="edgeStyle=orthogonalEdgeStyle;rounded=0;orthogonalLoop=1;jettySize=auto;html=1;" parent="1" source="_80qlgi9Hi1YphbFEvNP-230" target="_80qlgi9Hi1YphbFEvNP-235" edge="1">
          <mxGeometry relative="1" as="geometry" />
        </mxCell>
        <mxCell id="SSxU0Ux77sJdYV8XLshP-47" value="Yes" style="edgeLabel;html=1;align=center;verticalAlign=middle;resizable=0;points=[];" vertex="1" connectable="0" parent="_80qlgi9Hi1YphbFEvNP-236">
          <mxGeometry x="-0.1475" relative="1" as="geometry">
            <mxPoint y="-1" as="offset" />
          </mxGeometry>
        </mxCell>
        <mxCell id="SSxU0Ux77sJdYV8XLshP-50" style="edgeStyle=orthogonalEdgeStyle;rounded=0;orthogonalLoop=1;jettySize=auto;html=1;exitX=1;exitY=0.5;exitDx=0;exitDy=0;entryX=0.5;entryY=0;entryDx=0;entryDy=0;" edge="1" parent="1" source="_80qlgi9Hi1YphbFEvNP-230" target="_80qlgi9Hi1YphbFEvNP-198">
          <mxGeometry relative="1" as="geometry" />
        </mxCell>
        <mxCell id="SSxU0Ux77sJdYV8XLshP-51" value="No" style="edgeLabel;html=1;align=center;verticalAlign=middle;resizable=0;points=[];" vertex="1" connectable="0" parent="SSxU0Ux77sJdYV8XLshP-50">
          <mxGeometry x="-0.3389" y="-3" relative="1" as="geometry">
            <mxPoint as="offset" />
          </mxGeometry>
        </mxCell>
        <mxCell id="_80qlgi9Hi1YphbFEvNP-230" value="pilih = 4" style="rhombus;whiteSpace=wrap;html=1;strokeWidth=2;" parent="1" vertex="1">
          <mxGeometry x="4390" y="4159" width="80" height="80" as="geometry" />
        </mxCell>
        <mxCell id="_80qlgi9Hi1YphbFEvNP-235" value="output&lt;div&gt;anda kembali&lt;/div&gt;" style="shape=parallelogram;perimeter=parallelogramPerimeter;whiteSpace=wrap;html=1;fixedSize=1;strokeWidth=2;" parent="1" vertex="1">
          <mxGeometry x="4370" y="4300" width="120" height="60" as="geometry" />
        </mxCell>
        <mxCell id="_80qlgi9Hi1YphbFEvNP-243" style="edgeStyle=orthogonalEdgeStyle;rounded=0;orthogonalLoop=1;jettySize=auto;html=1;exitX=0.5;exitY=1;exitDx=0;exitDy=0;" parent="1" source="_80qlgi9Hi1YphbFEvNP-238" edge="1">
          <mxGeometry relative="1" as="geometry">
            <mxPoint x="689.9999999999995" y="1670" as="targetPoint" />
            <mxPoint x="919.9999999999995" y="1540" as="sourcePoint" />
            <Array as="points">
              <mxPoint x="930" y="1670" />
            </Array>
          </mxGeometry>
        </mxCell>
        <mxCell id="_80qlgi9Hi1YphbFEvNP-238" value="&lt;h3&gt;6&lt;/h3&gt;" style="ellipse;whiteSpace=wrap;html=1;aspect=fixed;fillColor=#7EA6E0;" parent="1" vertex="1">
          <mxGeometry x="890" y="1490" width="80" height="80" as="geometry" />
        </mxCell>
        <mxCell id="_80qlgi9Hi1YphbFEvNP-248" style="edgeStyle=orthogonalEdgeStyle;rounded=0;orthogonalLoop=1;jettySize=auto;html=1;exitX=1;exitY=0.5;exitDx=0;exitDy=0;exitPerimeter=0;entryX=0.5;entryY=0;entryDx=0;entryDy=0;entryPerimeter=0;" parent="1" source="UGArVvC-zDIMmZMFEhy5-11" target="UGArVvC-zDIMmZMFEhy5-115" edge="1">
          <mxGeometry relative="1" as="geometry" />
        </mxCell>
        <mxCell id="_80qlgi9Hi1YphbFEvNP-249" value="No" style="edgeLabel;html=1;align=center;verticalAlign=middle;resizable=0;points=[];" parent="_80qlgi9Hi1YphbFEvNP-248" vertex="1" connectable="0">
          <mxGeometry x="-0.7683" y="4" relative="1" as="geometry">
            <mxPoint x="-2" as="offset" />
          </mxGeometry>
        </mxCell>
        <mxCell id="IIXa-CxVkByhTY09dQFm-48" value="" style="edgeStyle=orthogonalEdgeStyle;rounded=0;orthogonalLoop=1;jettySize=auto;html=1;" parent="1" source="UGArVvC-zDIMmZMFEhy5-132" target="IIXa-CxVkByhTY09dQFm-47" edge="1">
          <mxGeometry relative="1" as="geometry" />
        </mxCell>
        <mxCell id="UGArVvC-zDIMmZMFEhy5-132" value="Pilih = 2" style="rhombus;whiteSpace=wrap;html=1;strokeWidth=2;" parent="1" vertex="1">
          <mxGeometry x="1798" y="2330" width="90" height="100" as="geometry" />
        </mxCell>
        <mxCell id="IIXa-CxVkByhTY09dQFm-13" value="" style="edgeStyle=orthogonalEdgeStyle;rounded=0;orthogonalLoop=1;jettySize=auto;html=1;" parent="1" source="IIXa-CxVkByhTY09dQFm-4" target="IIXa-CxVkByhTY09dQFm-5" edge="1">
          <mxGeometry relative="1" as="geometry" />
        </mxCell>
        <mxCell id="IIXa-CxVkByhTY09dQFm-4" value="Output&amp;nbsp;&lt;div&gt;1. Makanan&lt;/div&gt;&lt;div&gt;2. Minuman&lt;/div&gt;&lt;div&gt;3. Kembali&lt;span style=&quot;background-color: initial;&quot;&gt;&amp;nbsp;&lt;/span&gt;&lt;/div&gt;" style="shape=parallelogram;perimeter=parallelogramPerimeter;whiteSpace=wrap;html=1;fixedSize=1;strokeWidth=2;" parent="1" vertex="1">
          <mxGeometry x="1640" y="4650" width="120" height="60" as="geometry" />
        </mxCell>
        <mxCell id="IIXa-CxVkByhTY09dQFm-14" value="" style="edgeStyle=orthogonalEdgeStyle;rounded=0;orthogonalLoop=1;jettySize=auto;html=1;" parent="1" source="IIXa-CxVkByhTY09dQFm-5" target="IIXa-CxVkByhTY09dQFm-6" edge="1">
          <mxGeometry relative="1" as="geometry" />
        </mxCell>
        <mxCell id="IIXa-CxVkByhTY09dQFm-5" value="Input&amp;nbsp;&lt;div&gt;Pilih :&lt;/div&gt;" style="shape=parallelogram;perimeter=parallelogramPerimeter;whiteSpace=wrap;html=1;fixedSize=1;strokeWidth=2;" parent="1" vertex="1">
          <mxGeometry x="1640" y="4810" width="120" height="60" as="geometry" />
        </mxCell>
        <mxCell id="IIXa-CxVkByhTY09dQFm-15" value="" style="edgeStyle=orthogonalEdgeStyle;rounded=0;orthogonalLoop=1;jettySize=auto;html=1;" parent="1" source="IIXa-CxVkByhTY09dQFm-6" target="IIXa-CxVkByhTY09dQFm-7" edge="1">
          <mxGeometry relative="1" as="geometry" />
        </mxCell>
        <mxCell id="IIXa-CxVkByhTY09dQFm-96" value="Yes" style="edgeLabel;html=1;align=center;verticalAlign=middle;resizable=0;points=[];" parent="IIXa-CxVkByhTY09dQFm-15" vertex="1" connectable="0">
          <mxGeometry x="-0.2879" y="-4" relative="1" as="geometry">
            <mxPoint as="offset" />
          </mxGeometry>
        </mxCell>
        <mxCell id="IIXa-CxVkByhTY09dQFm-17" value="" style="edgeStyle=orthogonalEdgeStyle;rounded=0;orthogonalLoop=1;jettySize=auto;html=1;" parent="1" source="IIXa-CxVkByhTY09dQFm-6" target="IIXa-CxVkByhTY09dQFm-8" edge="1">
          <mxGeometry relative="1" as="geometry" />
        </mxCell>
        <mxCell id="IIXa-CxVkByhTY09dQFm-97" value="No" style="edgeLabel;html=1;align=center;verticalAlign=middle;resizable=0;points=[];" parent="IIXa-CxVkByhTY09dQFm-17" vertex="1" connectable="0">
          <mxGeometry x="-0.3075" y="2" relative="1" as="geometry">
            <mxPoint as="offset" />
          </mxGeometry>
        </mxCell>
        <mxCell id="IIXa-CxVkByhTY09dQFm-6" value="Pilih = 1" style="rhombus;whiteSpace=wrap;html=1;strokeWidth=2;" parent="1" vertex="1">
          <mxGeometry x="1860" y="4795" width="100" height="90" as="geometry" />
        </mxCell>
        <mxCell id="IIXa-CxVkByhTY09dQFm-31" value="" style="edgeStyle=orthogonalEdgeStyle;rounded=0;orthogonalLoop=1;jettySize=auto;html=1;" parent="1" source="IIXa-CxVkByhTY09dQFm-7" target="IIXa-CxVkByhTY09dQFm-29" edge="1">
          <mxGeometry relative="1" as="geometry" />
        </mxCell>
        <mxCell id="IIXa-CxVkByhTY09dQFm-7" value="lihat_data_&lt;div&gt;pesanan_&lt;/div&gt;&lt;div&gt;makanan&lt;/div&gt;" style="shape=process;whiteSpace=wrap;html=1;backgroundOutline=1;" parent="1" vertex="1">
          <mxGeometry x="1850" y="4970" width="120" height="60" as="geometry" />
        </mxCell>
        <mxCell id="IIXa-CxVkByhTY09dQFm-20" value="" style="edgeStyle=orthogonalEdgeStyle;rounded=0;orthogonalLoop=1;jettySize=auto;html=1;" parent="1" source="IIXa-CxVkByhTY09dQFm-8" target="IIXa-CxVkByhTY09dQFm-18" edge="1">
          <mxGeometry relative="1" as="geometry" />
        </mxCell>
        <mxCell id="IIXa-CxVkByhTY09dQFm-99" value="Yes" style="edgeLabel;html=1;align=center;verticalAlign=middle;resizable=0;points=[];" parent="IIXa-CxVkByhTY09dQFm-20" vertex="1" connectable="0">
          <mxGeometry x="-0.2048" y="6" relative="1" as="geometry">
            <mxPoint as="offset" />
          </mxGeometry>
        </mxCell>
        <mxCell id="IIXa-CxVkByhTY09dQFm-21" value="" style="edgeStyle=orthogonalEdgeStyle;rounded=0;orthogonalLoop=1;jettySize=auto;html=1;" parent="1" source="IIXa-CxVkByhTY09dQFm-8" target="IIXa-CxVkByhTY09dQFm-9" edge="1">
          <mxGeometry relative="1" as="geometry" />
        </mxCell>
        <mxCell id="IIXa-CxVkByhTY09dQFm-98" value="No" style="edgeLabel;html=1;align=center;verticalAlign=middle;resizable=0;points=[];" parent="IIXa-CxVkByhTY09dQFm-21" vertex="1" connectable="0">
          <mxGeometry x="-0.2698" relative="1" as="geometry">
            <mxPoint as="offset" />
          </mxGeometry>
        </mxCell>
        <mxCell id="IIXa-CxVkByhTY09dQFm-8" value="Pilih = 2" style="rhombus;whiteSpace=wrap;html=1;strokeWidth=2;" parent="1" vertex="1">
          <mxGeometry x="2060" y="4790" width="100" height="100" as="geometry" />
        </mxCell>
        <mxCell id="IIXa-CxVkByhTY09dQFm-24" value="" style="edgeStyle=orthogonalEdgeStyle;rounded=0;orthogonalLoop=1;jettySize=auto;html=1;" parent="1" source="IIXa-CxVkByhTY09dQFm-9" target="IIXa-CxVkByhTY09dQFm-22" edge="1">
          <mxGeometry relative="1" as="geometry" />
        </mxCell>
        <mxCell id="IIXa-CxVkByhTY09dQFm-100" value="Yes" style="edgeLabel;html=1;align=center;verticalAlign=middle;resizable=0;points=[];" parent="IIXa-CxVkByhTY09dQFm-24" vertex="1" connectable="0">
          <mxGeometry x="-0.2148" y="4" relative="1" as="geometry">
            <mxPoint y="1" as="offset" />
          </mxGeometry>
        </mxCell>
        <mxCell id="SSxU0Ux77sJdYV8XLshP-59" style="edgeStyle=orthogonalEdgeStyle;rounded=0;orthogonalLoop=1;jettySize=auto;html=1;exitX=1;exitY=0.5;exitDx=0;exitDy=0;entryX=0.5;entryY=0;entryDx=0;entryDy=0;" edge="1" parent="1" source="IIXa-CxVkByhTY09dQFm-9" target="IIXa-CxVkByhTY09dQFm-23">
          <mxGeometry relative="1" as="geometry" />
        </mxCell>
        <mxCell id="SSxU0Ux77sJdYV8XLshP-60" value="No" style="edgeLabel;html=1;align=center;verticalAlign=middle;resizable=0;points=[];" vertex="1" connectable="0" parent="SSxU0Ux77sJdYV8XLshP-59">
          <mxGeometry x="-0.4376" y="1" relative="1" as="geometry">
            <mxPoint as="offset" />
          </mxGeometry>
        </mxCell>
        <mxCell id="IIXa-CxVkByhTY09dQFm-9" value="Pilih = 3" style="rhombus;whiteSpace=wrap;html=1;strokeWidth=2;" parent="1" vertex="1">
          <mxGeometry x="2236" y="4795" width="90" height="95" as="geometry" />
        </mxCell>
        <mxCell id="IIXa-CxVkByhTY09dQFm-11" value="" style="edgeStyle=orthogonalEdgeStyle;rounded=0;orthogonalLoop=1;jettySize=auto;html=1;" parent="1" source="IIXa-CxVkByhTY09dQFm-10" target="IIXa-CxVkByhTY09dQFm-4" edge="1">
          <mxGeometry relative="1" as="geometry" />
        </mxCell>
        <mxCell id="IIXa-CxVkByhTY09dQFm-10" value="&lt;h3&gt;7&lt;/h3&gt;" style="ellipse;whiteSpace=wrap;html=1;aspect=fixed;fillColor=#7EA6E0;" parent="1" vertex="1">
          <mxGeometry x="1660" y="4400" width="80" height="80" as="geometry" />
        </mxCell>
        <mxCell id="IIXa-CxVkByhTY09dQFm-32" value="" style="edgeStyle=orthogonalEdgeStyle;rounded=0;orthogonalLoop=1;jettySize=auto;html=1;" parent="1" source="IIXa-CxVkByhTY09dQFm-18" target="IIXa-CxVkByhTY09dQFm-30" edge="1">
          <mxGeometry relative="1" as="geometry" />
        </mxCell>
        <mxCell id="IIXa-CxVkByhTY09dQFm-18" value="lihat_data_&lt;div&gt;pesanan_&lt;/div&gt;&lt;div&gt;minuman&lt;/div&gt;" style="shape=process;whiteSpace=wrap;html=1;backgroundOutline=1;" parent="1" vertex="1">
          <mxGeometry x="2052" y="4970" width="120" height="60" as="geometry" />
        </mxCell>
        <mxCell id="IIXa-CxVkByhTY09dQFm-22" value="Output&amp;nbsp;&lt;div&gt;Kembali beranda&lt;/div&gt;" style="shape=parallelogram;perimeter=parallelogramPerimeter;whiteSpace=wrap;html=1;fixedSize=1;strokeWidth=2;" parent="1" vertex="1">
          <mxGeometry x="2220" y="4970" width="120" height="60" as="geometry" />
        </mxCell>
        <mxCell id="IIXa-CxVkByhTY09dQFm-23" value="Output&amp;nbsp;&lt;div&gt;Tidak valid&lt;/div&gt;" style="shape=parallelogram;perimeter=parallelogramPerimeter;whiteSpace=wrap;html=1;fixedSize=1;strokeWidth=2;" parent="1" vertex="1">
          <mxGeometry x="2355" y="4890" width="120" height="60" as="geometry" />
        </mxCell>
        <mxCell id="IIXa-CxVkByhTY09dQFm-38" style="edgeStyle=orthogonalEdgeStyle;rounded=0;orthogonalLoop=1;jettySize=auto;html=1;exitX=0.5;exitY=1;exitDx=0;exitDy=0;" parent="1" edge="1">
          <mxGeometry relative="1" as="geometry">
            <mxPoint x="2112" y="5210" as="targetPoint" />
            <Array as="points">
              <mxPoint x="1912" y="5210" />
            </Array>
            <mxPoint x="1912" y="5140" as="sourcePoint" />
          </mxGeometry>
        </mxCell>
        <mxCell id="IIXa-CxVkByhTY09dQFm-29" value="input&lt;div&gt;pilih :&lt;/div&gt;" style="shape=parallelogram;html=1;strokeWidth=2;perimeter=parallelogramPerimeter;whiteSpace=wrap;rounded=1;arcSize=12;size=0.23;" parent="1" vertex="1">
          <mxGeometry x="1860" y="5080" width="100" height="60" as="geometry" />
        </mxCell>
        <mxCell id="IIXa-CxVkByhTY09dQFm-37" style="edgeStyle=orthogonalEdgeStyle;rounded=0;orthogonalLoop=1;jettySize=auto;html=1;exitX=0.5;exitY=1;exitDx=0;exitDy=0;entryX=0;entryY=0.5;entryDx=0;entryDy=0;" parent="1" source="IIXa-CxVkByhTY09dQFm-30" target="IIXa-CxVkByhTY09dQFm-35" edge="1">
          <mxGeometry relative="1" as="geometry" />
        </mxCell>
        <mxCell id="IIXa-CxVkByhTY09dQFm-30" value="input&lt;div&gt;pilih :&lt;/div&gt;" style="shape=parallelogram;html=1;strokeWidth=2;perimeter=parallelogramPerimeter;whiteSpace=wrap;rounded=1;arcSize=12;size=0.23;" parent="1" vertex="1">
          <mxGeometry x="2062" y="5090" width="100" height="60" as="geometry" />
        </mxCell>
        <mxCell id="SSxU0Ux77sJdYV8XLshP-57" style="edgeStyle=orthogonalEdgeStyle;rounded=0;orthogonalLoop=1;jettySize=auto;html=1;exitX=0.5;exitY=1;exitDx=0;exitDy=0;entryX=0;entryY=0.5;entryDx=0;entryDy=0;" edge="1" parent="1" source="IIXa-CxVkByhTY09dQFm-35" target="IIXa-CxVkByhTY09dQFm-4">
          <mxGeometry relative="1" as="geometry">
            <Array as="points">
              <mxPoint x="2200" y="5300" />
              <mxPoint x="1600" y="5300" />
              <mxPoint x="1600" y="4680" />
            </Array>
          </mxGeometry>
        </mxCell>
        <mxCell id="IIXa-CxVkByhTY09dQFm-35" value="Inputan terimpan di Pesanan" style="rounded=1;whiteSpace=wrap;html=1;absoluteArcSize=1;arcSize=14;strokeWidth=2;" parent="1" vertex="1">
          <mxGeometry x="2150" y="5160" width="100" height="100" as="geometry" />
        </mxCell>
        <mxCell id="IIXa-CxVkByhTY09dQFm-46" style="edgeStyle=orthogonalEdgeStyle;rounded=0;orthogonalLoop=1;jettySize=auto;html=1;exitX=0.5;exitY=1;exitDx=0;exitDy=0;entryX=0;entryY=0.5;entryDx=0;entryDy=0;" parent="1" source="IIXa-CxVkByhTY09dQFm-43" target="UGArVvC-zDIMmZMFEhy5-118" edge="1">
          <mxGeometry relative="1" as="geometry">
            <Array as="points">
              <mxPoint x="1590" y="2640" />
              <mxPoint x="1460" y="2640" />
              <mxPoint x="1460" y="2080" />
            </Array>
          </mxGeometry>
        </mxCell>
        <mxCell id="IIXa-CxVkByhTY09dQFm-43" value="&lt;h3&gt;7&lt;/h3&gt;" style="ellipse;whiteSpace=wrap;html=1;aspect=fixed;fillColor=#7EA6E0;" parent="1" vertex="1">
          <mxGeometry x="1550" y="2500" width="80" height="80" as="geometry" />
        </mxCell>
        <mxCell id="IIXa-CxVkByhTY09dQFm-51" style="edgeStyle=orthogonalEdgeStyle;rounded=0;orthogonalLoop=1;jettySize=auto;html=1;exitX=0.5;exitY=1;exitDx=0;exitDy=0;" parent="1" source="IIXa-CxVkByhTY09dQFm-47" edge="1">
          <mxGeometry relative="1" as="geometry">
            <mxPoint x="1580" y="2640" as="targetPoint" />
            <Array as="points">
              <mxPoint x="1843" y="2640" />
            </Array>
          </mxGeometry>
        </mxCell>
        <mxCell id="IIXa-CxVkByhTY09dQFm-47" value="&lt;h3&gt;8&lt;/h3&gt;" style="ellipse;whiteSpace=wrap;html=1;aspect=fixed;fillColor=#7EA6E0;" parent="1" vertex="1">
          <mxGeometry x="1803" y="2500" width="80" height="80" as="geometry" />
        </mxCell>
        <mxCell id="IIXa-CxVkByhTY09dQFm-67" value="" style="edgeStyle=orthogonalEdgeStyle;rounded=0;orthogonalLoop=1;jettySize=auto;html=1;" parent="1" source="IIXa-CxVkByhTY09dQFm-52" target="IIXa-CxVkByhTY09dQFm-53" edge="1">
          <mxGeometry relative="1" as="geometry" />
        </mxCell>
        <mxCell id="IIXa-CxVkByhTY09dQFm-52" value="Output&amp;nbsp;&lt;div&gt;1. Ruangan no smoking&lt;/div&gt;&lt;div&gt;2. Ruangan smoking&amp;nbsp;&lt;/div&gt;&lt;div&gt;3. Ruangan VIP&lt;/div&gt;&lt;div&gt;4. Kembali&lt;/div&gt;" style="shape=parallelogram;perimeter=parallelogramPerimeter;whiteSpace=wrap;html=1;fixedSize=1;strokeWidth=2;" parent="1" vertex="1">
          <mxGeometry x="2590" y="4820" width="160" height="70" as="geometry" />
        </mxCell>
        <mxCell id="IIXa-CxVkByhTY09dQFm-68" value="" style="edgeStyle=orthogonalEdgeStyle;rounded=0;orthogonalLoop=1;jettySize=auto;html=1;" parent="1" source="IIXa-CxVkByhTY09dQFm-53" target="IIXa-CxVkByhTY09dQFm-54" edge="1">
          <mxGeometry relative="1" as="geometry" />
        </mxCell>
        <mxCell id="IIXa-CxVkByhTY09dQFm-53" value="Input&amp;nbsp;&lt;div&gt;Pilih :&lt;/div&gt;" style="shape=parallelogram;perimeter=parallelogramPerimeter;whiteSpace=wrap;html=1;fixedSize=1;strokeWidth=2;" parent="1" vertex="1">
          <mxGeometry x="2610" y="5010" width="120" height="60" as="geometry" />
        </mxCell>
        <mxCell id="IIXa-CxVkByhTY09dQFm-69" value="" style="edgeStyle=orthogonalEdgeStyle;rounded=0;orthogonalLoop=1;jettySize=auto;html=1;" parent="1" source="IIXa-CxVkByhTY09dQFm-54" target="IIXa-CxVkByhTY09dQFm-55" edge="1">
          <mxGeometry relative="1" as="geometry" />
        </mxCell>
        <mxCell id="IIXa-CxVkByhTY09dQFm-103" value="Yes" style="edgeLabel;html=1;align=center;verticalAlign=middle;resizable=0;points=[];" parent="IIXa-CxVkByhTY09dQFm-69" vertex="1" connectable="0">
          <mxGeometry x="-0.1366" y="6" relative="1" as="geometry">
            <mxPoint as="offset" />
          </mxGeometry>
        </mxCell>
        <mxCell id="IIXa-CxVkByhTY09dQFm-70" value="" style="edgeStyle=orthogonalEdgeStyle;rounded=0;orthogonalLoop=1;jettySize=auto;html=1;" parent="1" source="IIXa-CxVkByhTY09dQFm-54" target="IIXa-CxVkByhTY09dQFm-56" edge="1">
          <mxGeometry relative="1" as="geometry" />
        </mxCell>
        <mxCell id="IIXa-CxVkByhTY09dQFm-102" value="No" style="edgeLabel;html=1;align=center;verticalAlign=middle;resizable=0;points=[];" parent="IIXa-CxVkByhTY09dQFm-70" vertex="1" connectable="0">
          <mxGeometry x="0.1071" y="2" relative="1" as="geometry">
            <mxPoint as="offset" />
          </mxGeometry>
        </mxCell>
        <mxCell id="IIXa-CxVkByhTY09dQFm-54" value="Pilih = 1" style="rhombus;whiteSpace=wrap;html=1;strokeWidth=2;" parent="1" vertex="1">
          <mxGeometry x="2780" y="5000" width="80" height="80" as="geometry" />
        </mxCell>
        <mxCell id="IIXa-CxVkByhTY09dQFm-80" style="edgeStyle=orthogonalEdgeStyle;rounded=0;orthogonalLoop=1;jettySize=auto;html=1;exitX=0.5;exitY=1;exitDx=0;exitDy=0;entryX=0;entryY=0.5;entryDx=0;entryDy=0;" parent="1" source="IIXa-CxVkByhTY09dQFm-55" target="IIXa-CxVkByhTY09dQFm-78" edge="1">
          <mxGeometry relative="1" as="geometry" />
        </mxCell>
        <mxCell id="IIXa-CxVkByhTY09dQFm-55" value="lihat_data_&lt;div&gt;pesanan_&lt;/div&gt;&lt;div&gt;no_smoking&lt;/div&gt;" style="shape=process;whiteSpace=wrap;html=1;backgroundOutline=1;" parent="1" vertex="1">
          <mxGeometry x="2760" y="5180" width="120" height="60" as="geometry" />
        </mxCell>
        <mxCell id="IIXa-CxVkByhTY09dQFm-71" value="" style="edgeStyle=orthogonalEdgeStyle;rounded=0;orthogonalLoop=1;jettySize=auto;html=1;" parent="1" source="IIXa-CxVkByhTY09dQFm-56" target="IIXa-CxVkByhTY09dQFm-58" edge="1">
          <mxGeometry relative="1" as="geometry" />
        </mxCell>
        <mxCell id="IIXa-CxVkByhTY09dQFm-104" value="Yes" style="edgeLabel;html=1;align=center;verticalAlign=middle;resizable=0;points=[];" parent="IIXa-CxVkByhTY09dQFm-71" vertex="1" connectable="0">
          <mxGeometry x="-0.1988" y="3" relative="1" as="geometry">
            <mxPoint as="offset" />
          </mxGeometry>
        </mxCell>
        <mxCell id="IIXa-CxVkByhTY09dQFm-72" value="" style="edgeStyle=orthogonalEdgeStyle;rounded=0;orthogonalLoop=1;jettySize=auto;html=1;" parent="1" source="IIXa-CxVkByhTY09dQFm-56" target="IIXa-CxVkByhTY09dQFm-60" edge="1">
          <mxGeometry relative="1" as="geometry" />
        </mxCell>
        <mxCell id="IIXa-CxVkByhTY09dQFm-105" value="No" style="edgeLabel;html=1;align=center;verticalAlign=middle;resizable=0;points=[];" parent="IIXa-CxVkByhTY09dQFm-72" vertex="1" connectable="0">
          <mxGeometry x="-0.2245" y="2" relative="1" as="geometry">
            <mxPoint as="offset" />
          </mxGeometry>
        </mxCell>
        <mxCell id="IIXa-CxVkByhTY09dQFm-56" value="Pilih = 2" style="rhombus;whiteSpace=wrap;html=1;strokeWidth=2;" parent="1" vertex="1">
          <mxGeometry x="2930" y="5000" width="80" height="80" as="geometry" />
        </mxCell>
        <mxCell id="IIXa-CxVkByhTY09dQFm-81" style="edgeStyle=orthogonalEdgeStyle;rounded=0;orthogonalLoop=1;jettySize=auto;html=1;exitX=0.5;exitY=1;exitDx=0;exitDy=0;entryX=0;entryY=0.25;entryDx=0;entryDy=0;" parent="1" source="IIXa-CxVkByhTY09dQFm-58" target="IIXa-CxVkByhTY09dQFm-78" edge="1">
          <mxGeometry relative="1" as="geometry" />
        </mxCell>
        <mxCell id="IIXa-CxVkByhTY09dQFm-58" value="lihat_data_&lt;div&gt;pesanan_&lt;/div&gt;&lt;div&gt;smoking&lt;/div&gt;" style="shape=process;whiteSpace=wrap;html=1;backgroundOutline=1;" parent="1" vertex="1">
          <mxGeometry x="2908" y="5180" width="120" height="60" as="geometry" />
        </mxCell>
        <mxCell id="IIXa-CxVkByhTY09dQFm-82" style="edgeStyle=orthogonalEdgeStyle;rounded=0;orthogonalLoop=1;jettySize=auto;html=1;exitX=0.5;exitY=1;exitDx=0;exitDy=0;entryX=0.5;entryY=0;entryDx=0;entryDy=0;" parent="1" source="IIXa-CxVkByhTY09dQFm-59" target="IIXa-CxVkByhTY09dQFm-78" edge="1">
          <mxGeometry relative="1" as="geometry" />
        </mxCell>
        <mxCell id="IIXa-CxVkByhTY09dQFm-59" value="lihat_data_&lt;div&gt;pesanan_&lt;/div&gt;&lt;div&gt;Vip&lt;/div&gt;" style="shape=process;whiteSpace=wrap;html=1;backgroundOutline=1;" parent="1" vertex="1">
          <mxGeometry x="3070" y="5180" width="120" height="60" as="geometry" />
        </mxCell>
        <mxCell id="IIXa-CxVkByhTY09dQFm-73" value="" style="edgeStyle=orthogonalEdgeStyle;rounded=0;orthogonalLoop=1;jettySize=auto;html=1;" parent="1" source="IIXa-CxVkByhTY09dQFm-60" target="IIXa-CxVkByhTY09dQFm-59" edge="1">
          <mxGeometry relative="1" as="geometry" />
        </mxCell>
        <mxCell id="IIXa-CxVkByhTY09dQFm-106" value="Yes" style="edgeLabel;html=1;align=center;verticalAlign=middle;resizable=0;points=[];" parent="IIXa-CxVkByhTY09dQFm-73" vertex="1" connectable="0">
          <mxGeometry x="-0.323" y="1" relative="1" as="geometry">
            <mxPoint as="offset" />
          </mxGeometry>
        </mxCell>
        <mxCell id="IIXa-CxVkByhTY09dQFm-74" value="" style="edgeStyle=orthogonalEdgeStyle;rounded=0;orthogonalLoop=1;jettySize=auto;html=1;" parent="1" source="IIXa-CxVkByhTY09dQFm-60" target="IIXa-CxVkByhTY09dQFm-61" edge="1">
          <mxGeometry relative="1" as="geometry" />
        </mxCell>
        <mxCell id="IIXa-CxVkByhTY09dQFm-107" value="No" style="edgeLabel;html=1;align=center;verticalAlign=middle;resizable=0;points=[];" parent="IIXa-CxVkByhTY09dQFm-74" vertex="1" connectable="0">
          <mxGeometry x="-0.2037" y="2" relative="1" as="geometry">
            <mxPoint as="offset" />
          </mxGeometry>
        </mxCell>
        <mxCell id="IIXa-CxVkByhTY09dQFm-60" value="Pilih = 3" style="rhombus;whiteSpace=wrap;html=1;strokeWidth=2;" parent="1" vertex="1">
          <mxGeometry x="3090" y="5000" width="80" height="80" as="geometry" />
        </mxCell>
        <mxCell id="IIXa-CxVkByhTY09dQFm-75" value="" style="edgeStyle=orthogonalEdgeStyle;rounded=0;orthogonalLoop=1;jettySize=auto;html=1;" parent="1" source="IIXa-CxVkByhTY09dQFm-61" target="IIXa-CxVkByhTY09dQFm-62" edge="1">
          <mxGeometry relative="1" as="geometry" />
        </mxCell>
        <mxCell id="IIXa-CxVkByhTY09dQFm-108" value="Yes" style="edgeLabel;html=1;align=center;verticalAlign=middle;resizable=0;points=[];" parent="IIXa-CxVkByhTY09dQFm-75" vertex="1" connectable="0">
          <mxGeometry x="-0.1998" y="3" relative="1" as="geometry">
            <mxPoint as="offset" />
          </mxGeometry>
        </mxCell>
        <mxCell id="IIXa-CxVkByhTY09dQFm-77" style="edgeStyle=orthogonalEdgeStyle;rounded=0;orthogonalLoop=1;jettySize=auto;html=1;exitX=1;exitY=0.5;exitDx=0;exitDy=0;entryX=0.5;entryY=0;entryDx=0;entryDy=0;" parent="1" source="IIXa-CxVkByhTY09dQFm-61" target="IIXa-CxVkByhTY09dQFm-76" edge="1">
          <mxGeometry relative="1" as="geometry" />
        </mxCell>
        <mxCell id="IIXa-CxVkByhTY09dQFm-109" value="No" style="edgeLabel;html=1;align=center;verticalAlign=middle;resizable=0;points=[];" parent="IIXa-CxVkByhTY09dQFm-77" vertex="1" connectable="0">
          <mxGeometry x="-0.4286" y="4" relative="1" as="geometry">
            <mxPoint as="offset" />
          </mxGeometry>
        </mxCell>
        <mxCell id="IIXa-CxVkByhTY09dQFm-61" value="Pilih = 4" style="rhombus;whiteSpace=wrap;html=1;strokeWidth=2;" parent="1" vertex="1">
          <mxGeometry x="3280" y="5000" width="80" height="80" as="geometry" />
        </mxCell>
        <mxCell id="IIXa-CxVkByhTY09dQFm-62" value="Output&amp;nbsp;&lt;div&gt;Kembali anda&lt;/div&gt;" style="shape=parallelogram;perimeter=parallelogramPerimeter;whiteSpace=wrap;html=1;fixedSize=1;strokeWidth=2;" parent="1" vertex="1">
          <mxGeometry x="3259.44" y="5178.56" width="121.12" height="61.44" as="geometry" />
        </mxCell>
        <mxCell id="IIXa-CxVkByhTY09dQFm-65" value="" style="edgeStyle=orthogonalEdgeStyle;rounded=0;orthogonalLoop=1;jettySize=auto;html=1;" parent="1" source="IIXa-CxVkByhTY09dQFm-64" target="IIXa-CxVkByhTY09dQFm-52" edge="1">
          <mxGeometry relative="1" as="geometry" />
        </mxCell>
        <mxCell id="IIXa-CxVkByhTY09dQFm-64" value="&lt;h3&gt;8&lt;/h3&gt;" style="ellipse;whiteSpace=wrap;html=1;aspect=fixed;fillColor=#7EA6E0;" parent="1" vertex="1">
          <mxGeometry x="2630" y="4640" width="80" height="80" as="geometry" />
        </mxCell>
        <mxCell id="IIXa-CxVkByhTY09dQFm-76" value="Output&amp;nbsp;&lt;div&gt;Tidak valid&lt;/div&gt;" style="shape=parallelogram;perimeter=parallelogramPerimeter;whiteSpace=wrap;html=1;fixedSize=1;strokeWidth=2;" parent="1" vertex="1">
          <mxGeometry x="3380.56" y="5100" width="120" height="60" as="geometry" />
        </mxCell>
        <mxCell id="IIXa-CxVkByhTY09dQFm-78" value="Inputan terimpan di Pesanan" style="rounded=1;whiteSpace=wrap;html=1;absoluteArcSize=1;arcSize=14;strokeWidth=2;" parent="1" vertex="1">
          <mxGeometry x="3028" y="5310" width="100" height="100" as="geometry" />
        </mxCell>
        <mxCell id="IIXa-CxVkByhTY09dQFm-84" style="edgeStyle=orthogonalEdgeStyle;rounded=0;orthogonalLoop=1;jettySize=auto;html=1;exitX=1;exitY=0.5;exitDx=0;exitDy=0;exitPerimeter=0;entryX=0.5;entryY=0;entryDx=0;entryDy=0;entryPerimeter=0;" parent="1" source="UGArVvC-zDIMmZMFEhy5-115" target="UGArVvC-zDIMmZMFEhy5-203" edge="1">
          <mxGeometry relative="1" as="geometry" />
        </mxCell>
        <mxCell id="IIXa-CxVkByhTY09dQFm-85" value="No" style="edgeLabel;html=1;align=center;verticalAlign=middle;resizable=0;points=[];" parent="IIXa-CxVkByhTY09dQFm-84" vertex="1" connectable="0">
          <mxGeometry x="-0.7587" y="-4" relative="1" as="geometry">
            <mxPoint as="offset" />
          </mxGeometry>
        </mxCell>
        <mxCell id="SSxU0Ux77sJdYV8XLshP-3" value="" style="edgeStyle=orthogonalEdgeStyle;rounded=0;orthogonalLoop=1;jettySize=auto;html=1;" edge="1" parent="1" source="SSxU0Ux77sJdYV8XLshP-1" target="-5CWVYfqe_hXi2GjYJDk-3">
          <mxGeometry relative="1" as="geometry" />
        </mxCell>
        <mxCell id="SSxU0Ux77sJdYV8XLshP-1" value="1. lihat menu cemilan&lt;div&gt;2. lihat menu ps&lt;/div&gt;&lt;div&gt;3. tambah menu&lt;/div&gt;&lt;div&gt;4. hapus menu&lt;/div&gt;&lt;div&gt;5. lihat pesanan (cemilan)&lt;/div&gt;&lt;div&gt;6. lihat pesanan (ps)&lt;/div&gt;&lt;div&gt;7. exit&lt;/div&gt;" style="shape=parallelogram;html=1;strokeWidth=2;perimeter=parallelogramPerimeter;whiteSpace=wrap;rounded=1;arcSize=12;size=0.23;" vertex="1" parent="1">
          <mxGeometry x="-150" y="2980" width="280" height="120" as="geometry" />
        </mxCell>
        <mxCell id="SSxU0Ux77sJdYV8XLshP-6" value="" style="edgeStyle=orthogonalEdgeStyle;rounded=0;orthogonalLoop=1;jettySize=auto;html=1;" edge="1" parent="1" source="SSxU0Ux77sJdYV8XLshP-4" target="_80qlgi9Hi1YphbFEvNP-13">
          <mxGeometry relative="1" as="geometry" />
        </mxCell>
        <mxCell id="SSxU0Ux77sJdYV8XLshP-4" value="1. lihat menu cemilan&lt;div&gt;2. lihat menu ps&lt;/div&gt;&lt;div&gt;3. tambah menu&lt;/div&gt;&lt;div&gt;4. hapus menu&lt;/div&gt;&lt;div&gt;5. lihat pesanan (cemilan)&lt;/div&gt;&lt;div&gt;6. lihat pesanan (ps)&lt;/div&gt;&lt;div&gt;7. exit&lt;/div&gt;" style="shape=parallelogram;html=1;strokeWidth=2;perimeter=parallelogramPerimeter;whiteSpace=wrap;rounded=1;arcSize=12;size=0.23;" vertex="1" parent="1">
          <mxGeometry x="122" y="2980" width="280" height="120" as="geometry" />
        </mxCell>
        <mxCell id="_80qlgi9Hi1YphbFEvNP-42" value="Output&lt;div&gt;&quot;kembli anda&quot;&lt;/div&gt;" style="shape=parallelogram;html=1;strokeWidth=2;perimeter=parallelogramPerimeter;whiteSpace=wrap;rounded=1;arcSize=12;size=0.23;" parent="1" vertex="1">
          <mxGeometry x="1370" y="3630" width="100" height="60" as="geometry" />
        </mxCell>
        <mxCell id="SSxU0Ux77sJdYV8XLshP-61" style="edgeStyle=orthogonalEdgeStyle;rounded=0;orthogonalLoop=1;jettySize=auto;html=1;exitX=0.5;exitY=1;exitDx=0;exitDy=0;entryX=0.035;entryY=0.381;entryDx=0;entryDy=0;entryPerimeter=0;" edge="1" parent="1" source="IIXa-CxVkByhTY09dQFm-78" target="IIXa-CxVkByhTY09dQFm-52">
          <mxGeometry relative="1" as="geometry">
            <Array as="points">
              <mxPoint x="3078" y="5430" />
              <mxPoint x="2550" y="5430" />
              <mxPoint x="2550" y="4847" />
            </Array>
          </mxGeometry>
        </mxCell>
      </root>
    </mxGraphModel>
  </diagram>
</mxfile>
